<svg xmlns="http://www.w3.org/2000/svg" width="217.898" height="63" viewBox="0 0 217.898 63">
  <g id="logo" transform="translate(65 1565)">
    <g id="Page-1" transform="translate(-59.5 -1561.5)">
      <g id="Finance-Saas-Landingpage" transform="translate(-6 -3)">
        <g id="Group-8-Copy-2">
          <g id="Group-6" transform="translate(0 0)">
            <g id="ic_Secure">
              <rect id="Rectangle" width="63" height="63" rx="10" transform="translate(0.5 -0.5)" fill="none" opacity="0.1"/>
              <g id="Group-10-Copy" transform="translate(11.679 6.627)">
                <path id="Combined-Shape" d="M20.431.322a.933.933,0,0,0-.906.005,33.973,33.973,0,0,1-8.152,6.419A38.41,38.41,0,0,1,.91,10.757a.978.978,0,0,0-.495.855V21.98A28.236,28.236,0,0,0,16.953,47.8l2.584,1.151a.933.933,0,0,0,.759,0l2.911-1.285A28.169,28.169,0,0,0,40.081,21.709v-10.1a.978.978,0,0,0-.5-.86A45.951,45.951,0,0,1,28.9,6.738,43.451,43.451,0,0,1,20.431.322Z" transform="translate(-0.415 -0.208)" fill="none" stroke="#757ae9" stroke-width="2" fill-rule="evenodd"/>
                <path id="Combined-Shape-2" data-name="Combined-Shape" d="M12.813,4.089a.734.734,0,0,1,.447.079A33.319,33.319,0,0,0,19.777,8.98a35.908,35.908,0,0,0,8.21,3.01.731.731,0,0,1,.388.645h0v7.573A21.113,21.113,0,0,1,15.395,39.673h0l-2.239.964a.733.733,0,0,1-.342.058Z" transform="translate(6.714 2.02)" fill="#babcf4"/>
                <path id="Path-Copy" d="M14.687,24.011,25.2,13.655a1.671,1.671,0,0,1,2.337,0,1.61,1.61,0,0,1,0,2.3L15.856,27.463a1.671,1.671,0,0,1-2.337,0l-7.012-6.9a1.61,1.61,0,0,1,0-2.3,1.671,1.671,0,0,1,2.337,0Z" transform="translate(2.809 7.251)" fill="#fff" fill-rule="evenodd"/>
                <path id="Path" d="M14.687,23.011,25.2,12.655a1.671,1.671,0,0,1,2.337,0,1.61,1.61,0,0,1,0,2.3L15.856,26.463a1.671,1.671,0,0,1-2.337,0l-7.012-6.9a1.61,1.61,0,0,1,0-2.3,1.671,1.671,0,0,1,2.337,0Z" transform="translate(2.809 6.676)" fill="#757ae9" fill-rule="evenodd"/>
              </g>
            </g>
          </g>
        </g>
      </g>
    </g>
    <g id="Group_18" data-name="Group 18" transform="translate(-0.298 2)">
      <path id="Path_26" data-name="Path 26" d="M385.81,694.411l10.205-.668v-2.957c0-4.1-2.575-6.485-7.153-6.485a12.227,12.227,0,0,0-8.393,3.243l-2.384-3.243a16.383,16.383,0,0,1,11.254-4.1c6.676,0,10.968,3.815,10.968,9.919v15.832a1.829,1.829,0,0,0,2,1.907h1.526v4.006h-2.384c-2.957,0-5.055-1.717-5.436-4.292a11.715,11.715,0,0,1-9.824,4.864c-6.009,0-10.491-3.72-10.491-9.156C375.891,698.131,379.515,694.888,385.81,694.411Zm1.24,14.4c5.055,0,9.061-3.72,9.061-8.3v-3.147l-9.538.668c-4.1.286-6.295,2.194-6.295,5.341C380.183,706.524,383.044,708.813,387.05,708.813Z" transform="translate(-343.249 -2231.469)" fill="#051e44"/>
      <path id="Path_27" data-name="Path 27" d="M464.6,708.527a11.968,11.968,0,0,0,9.728-5.055l3.338,2.384a15.776,15.776,0,0,1-13.066,6.676,16.168,16.168,0,1,1,0-32.332,15.649,15.649,0,0,1,13.066,6.676l-3.338,2.384a11.912,11.912,0,0,0-21.65,7.058A12.113,12.113,0,0,0,464.6,708.527Z" transform="translate(-447.7 -2231.469)" fill="#051e44"/>
      <path id="Path_28" data-name="Path 28" d="M509.526,711.3v-5.055a15.4,15.4,0,0,1-12.113,5.723,16.166,16.166,0,1,1,0-32.332,15.4,15.4,0,0,1,12.113,5.722V667.9h4.483v43.4ZM497.7,683.637a12.163,12.163,0,1,0,11.922,12.113A11.968,11.968,0,0,0,497.7,683.637Z" transform="translate(-404.4 -2230.9)" fill="#051e44"/>
      <path id="Path_29" data-name="Path 29" d="M701.9,711.3V667.9h4.483v43.4Z" transform="translate(-586.282 -2230.9)" fill="#051e44"/>
      <path id="Path_30" data-name="Path 30" d="M932.227,684.7c-4.292,0-7.344,3.624-7.344,8.488v18.694H920.4V680.791h4.483v4.1a8.284,8.284,0,0,1,7.535-4.292h2.194v4.2h-2.384Z" transform="translate(-856.762 -2231.487)" fill="#051e44"/>
      <path id="Path_31" data-name="Path 31" d="M1134.885,711.225,1122.2,680.8h4.769l10.205,24.893,10.014-24.893h4.673l-14.974,36.624c-1.717,4.2-3.91,6.486-8.2,6.486h-3.624V719.9h2.766c2.575,0,4.006-1.145,4.96-3.624Z" transform="translate(-998.666 -2231.497)" fill="#051e44"/>
    </g>
  </g>
</svg>
