<?xml version="1.0" encoding="UTF-8"?>
<svg width="33px" height="34px" viewBox="0 0 33 34" version="1.1" xmlns="http://www.w3.org/2000/svg" xmlns:xlink="http://www.w3.org/1999/xlink">
    <!-- Generator: Sketch 63.1 (92452) - https://sketch.com -->
    <title>ic_Control</title>
    <desc>Created with Sketch.</desc>
    <g id="Page-1" stroke="none" stroke-width="1" fill="none" fill-rule="evenodd">
        <g id="Finance-Saas-Landingpage" transform="translate(-138.000000, -2573.000000)">
            <g id="Group-8-Copy" transform="translate(135.000000, 2304.000000)">
                <g id="Group-6" transform="translate(0.000000, 266.000000)">
                    <g id="ic_Control">
                        <rect id="Rectangle" opacity="0.100000001" x="0" y="0" width="40" height="40" rx="10"></rect>
                        <g id="Group-66" transform="translate(4.000000, 4.000000)">
                            <path d="M17.206,2.5 L17.8039994,6.68011203 L19.1254387,7.22390061 L19.4501303,7.36523982 C20.0663378,7.64807141 20.6636559,8.01214549 21.241615,8.45854776 L22.3758187,9.3345806 L26.28,7.758 L27.995,10.739 L24.6879803,13.3383272 L24.8920506,14.9935033 C24.934997,15.3815555 24.9546383,15.6953744 24.9546383,16 C24.9546383,16.3630988 24.9268198,16.7404428 24.8622447,17.259157 L24.6876611,18.6615377 L27.996,21.259 L26.279,24.239 L22.3944664,22.673044 L21.2658819,23.5229444 L20.9489113,23.7542184 C20.3350423,24.1878023 19.7299608,24.5273311 19.1254387,24.7760994 L17.8039994,25.319888 L17.206,29.5 L15.499,29.5 L15.499,2.5 L17.206,2.5 Z" id="Combined-Shape" fill="#BABCF4" fill-rule="nonzero"></path>
                            <path d="M15.5035196,22.6 C12.4280984,22.6 9.92633086,20.088 9.92633086,17 C9.92633086,13.912 12.4280984,11.4 15.5035196,11.4 C18.5789408,11.4 21.0807083,13.912 21.0807083,17 C21.0807083,20.088 18.5789408,22.6 15.5035196,22.6 L15.5035196,22.6 Z" id="Path" stroke="#FFFFFF" stroke-width="2" fill="#FFFFFF"></path>
                            <path d="M27.3430945,17.568 C27.4068338,17.056 27.4546383,16.544 27.4546383,16 C27.4546383,15.456 27.4068338,14.944 27.3430945,14.432 L30.7053426,11.792 C31.0081043,11.552 31.0877784,11.12 30.8965605,10.768 L27.7095955,5.232 C27.5183776,4.88 27.0881373,4.752 26.7375712,4.88 L22.7697998,6.48 C21.9411889,5.84 21.0488387,5.312 20.0768144,4.912 L19.471291,0.672 C19.4234865,0.288 19.0888552,3.55271368e-15 18.6904846,3.55271368e-15 L12.3165546,3.55271368e-15 C11.918184,3.55271368e-15 11.5835527,0.288 11.5357482,0.672 L10.9302248,4.912 C9.95820051,5.312 9.06585032,5.856 8.23723942,6.48 L4.26946801,4.88 C3.90296703,4.736 3.48866159,4.88 3.29744369,5.232 L0.110478697,10.768 C-0.0966740271,11.12 -0.00106507743,11.552 0.301696597,11.792 L3.66394466,14.432 C3.60020536,14.944 3.55240089,15.472 3.55240089,16 C3.55240089,16.528 3.60020536,17.056 3.66394466,17.568 L0.301696597,20.208 C-0.00106507743,20.448 -0.0807392022,20.88 0.110478697,21.232 L3.29744369,26.768 C3.48866159,27.12 3.91890186,27.248 4.26946801,27.12 L8.23723942,25.52 C9.06585032,26.16 9.95820051,26.688 10.9302248,27.088 L11.5357482,31.328 C11.5835527,31.712 11.918184,32 12.3165546,32 L18.6904846,32 C19.0888552,32 19.4234865,31.712 19.471291,31.328 L20.0768144,27.088 C21.0488387,26.688 21.9411889,26.144 22.7697998,25.52 L26.7375712,27.12 C27.1040722,27.264 27.5183776,27.12 27.7095955,26.768 L30.8965605,21.232 C31.0877784,20.88 31.0081043,20.448 30.7053426,20.208 L27.3430945,17.568 L27.3430945,17.568 Z M15.5035196,21.6 C12.4280984,21.6 9.92633086,19.088 9.92633086,16 C9.92633086,12.912 12.4280984,10.4 15.5035196,10.4 C18.5789408,10.4 21.0807083,12.912 21.0807083,16 C21.0807083,19.088 18.5789408,21.6 15.5035196,21.6 L15.5035196,21.6 Z" id="Shape" stroke="#757AE9" stroke-width="2"></path>
                        </g>
                    </g>
                </g>
            </g>
        </g>
    </g>
</svg>