<svg width="750" height="564" viewBox="0 0 750 564" fill="none" xmlns="http://www.w3.org/2000/svg">
<g id="Illustration_Illustration">
<g id="Rectangle 2">
<path id="Rectangle" d="M118.658 97.902C129.293 41.1375 178.853 0 236.605 0H677.724C687.741 0 695.295 9.10042 693.45 18.9464L635.342 329.098C624.707 385.863 575.147 427 517.395 427H76.2761C66.2588 427 58.705 417.9 60.5497 408.054L118.658 97.902Z" fill="url(#paint0_linear)"/>
<mask id="mask0" mask-type="alpha" maskUnits="userSpaceOnUse" x="60" y="0" width="634" height="427">
<path id="Rectangle_2" d="M118.658 97.902C129.293 41.1375 178.853 0 236.605 0H677.724C687.741 0 695.295 9.10042 693.45 18.9464L635.342 329.098C624.707 385.863 575.147 427 517.395 427H76.2761C66.2588 427 58.705 417.9 60.5497 408.054L118.658 97.902Z" fill="white"/>
</mask>
<g mask="url(#mask0)">
<g id="Group 3">
<g id="Rectangle Copy 3">
<path id="Mask" d="M145 236L102 276V594H145V236Z" fill="url(#paint1_linear)"/>
<mask id="mask1" mask-type="alpha" maskUnits="userSpaceOnUse" x="102" y="236" width="43" height="358">
<path id="Mask_2" d="M145 236L102 276V594H145V236Z" fill="white"/>
</mask>
<g mask="url(#mask1)">
<rect id="Rectangle_3" width="36" height="333" transform="matrix(-1 0 0 1 113 261)" fill="url(#paint2_linear)"/>
</g>
</g>
<g id="Rectangle Copy 2">
<path id="Mask_3" d="M171 91L128 131V594H171V91Z" fill="url(#paint3_linear)"/>
<mask id="mask2" mask-type="alpha" maskUnits="userSpaceOnUse" x="128" y="91" width="43" height="503">
<path id="Mask_4" d="M171 91L128 131V594H171V91Z" fill="white"/>
</mask>
<g mask="url(#mask2)">
<rect id="Rectangle_4" width="36" height="478" transform="matrix(-1 0 0 1 139 116)" fill="url(#paint4_linear)"/>
</g>
</g>
<g id="Rectangle Copy">
<path id="Mask_5" d="M152 141L195 181V594H152V141Z" fill="url(#paint5_linear)"/>
<mask id="mask3" mask-type="alpha" maskUnits="userSpaceOnUse" x="152" y="141" width="43" height="453">
<path id="Mask_6" d="M152 141L195 181V594H152V141Z" fill="white"/>
</mask>
<g mask="url(#mask3)">
<rect id="Rectangle_5" x="127" y="124" width="36" height="470" fill="url(#paint6_linear)"/>
</g>
</g>
<g id="Group 4">
<rect id="Rectangle_6" x="148" y="127" width="9" height="3" fill="#A6BDFF"/>
<rect id="Rectangle Copy 4" x="136" y="144" width="6" height="3" fill="#A6BDFF"/>
<rect id="Rectangle Copy 6" x="132" y="182" width="3" height="3" fill="#A6BDFF"/>
<rect id="Rectangle Copy 7" x="146" y="182" width="3" height="3" fill="#A6BDFF"/>
<rect id="Rectangle Copy 8" x="154" y="182" width="3" height="3" fill="#A6BDFF"/>
<rect id="Rectangle Copy 10" x="144" y="192" width="3" height="3" fill="#A6BDFF"/>
<rect id="Rectangle Copy 11" x="152" y="192" width="3" height="3" fill="#A6BDFF"/>
<rect id="Rectangle Copy 12" x="164" y="192" width="7" height="3" fill="#A6BDFF"/>
<rect id="Rectangle Copy 13" x="183" y="192" width="4" height="3" fill="#A6BDFF"/>
<rect id="Rectangle Copy 14" x="156" y="212" width="14" height="3" fill="#A6BDFF"/>
<rect id="Rectangle Copy 15" x="134" y="212" width="5" height="3" fill="#A6BDFF"/>
<rect id="Rectangle Copy 16" x="146" y="212" width="3" height="3" fill="#A6BDFF"/>
<rect id="Rectangle Copy 17" x="146" y="222" width="3" height="3" fill="#A6BDFF"/>
<rect id="Rectangle Copy 18" x="136" y="222" width="3" height="3" fill="#A6BDFF"/>
<rect id="Rectangle Copy 19" x="156" y="222" width="3" height="3" fill="#A6BDFF"/>
<rect id="Rectangle Copy 20" x="166" y="222" width="13" height="3" fill="#A6BDFF"/>
<rect id="Rectangle Copy 21" x="166" y="242" width="5" height="3" fill="#A6BDFF"/>
<rect id="Rectangle Copy 22" x="166" y="262" width="5" height="3" fill="#A6BDFF"/>
<rect id="Rectangle Copy 23" x="166" y="282" width="5" height="3" fill="#A6BDFF"/>
<rect id="Rectangle Copy 24" x="146" y="282" width="5" height="3" fill="#A6BDFF"/>
<rect id="Rectangle Copy 25" x="146" y="272" width="11" height="3" fill="#A6BDFF"/>
<rect id="Rectangle Copy 26" x="156" y="312" width="5" height="3" fill="#A6BDFF"/>
<rect id="Rectangle Copy 27" x="136" y="322" width="10" height="3" fill="#A6BDFF"/>
<rect id="Rectangle Copy 28" x="166" y="322" width="7" height="3" fill="#A6BDFF"/>
<rect id="Rectangle Copy 29" x="166" y="342" width="4" height="3" fill="#A6BDFF"/>
<rect id="Rectangle Copy 30" x="166" y="362" width="4" height="3" fill="#A6BDFF"/>
<rect id="Rectangle Copy 9" x="164" y="182" width="13" height="3" fill="#A6BDFF"/>
</g>
</g>
<g id="Group 5" opacity="0.6">
<path id="Rectangle Copy 31" d="M569 182L599 82H669V440H569V182Z" fill="url(#paint7_linear)"/>
<path id="Rectangle_7" d="M619 182L669 82H689V440H619V182Z" fill="url(#paint8_linear)"/>
<rect id="Rectangle Copy 14_2" x="603" y="117" width="14" height="3" fill="#D0DDFF"/>
<rect id="Rectangle Copy 32" x="623" y="117" width="10" height="3" fill="#D0DDFF"/>
<rect id="Rectangle Copy 33" x="593" y="127" width="10" height="3" fill="#D0DDFF"/>
<rect id="Rectangle Copy 34" x="593" y="157" width="20" height="3" fill="#D0DDFF"/>
<rect id="Rectangle Copy 35" x="593" y="167" width="10" height="3" fill="#D0DDFF"/>
<rect id="Rectangle Copy 36" x="603" y="177" width="7" height="3" fill="#D0DDFF"/>
<rect id="Rectangle Copy 37" x="583" y="187" width="10" height="3" fill="#D0DDFF"/>
<rect id="Rectangle Copy 38" x="583" y="207" width="10" height="3" fill="#D0DDFF"/>
<rect id="Rectangle Copy 39" x="603" y="207" width="6" height="3" fill="#D0DDFF"/>
<rect id="Rectangle Copy 40" x="603" y="227" width="6" height="3" fill="#D0DDFF"/>
<rect id="Rectangle Copy 41" x="593" y="247" width="16" height="3" fill="#D0DDFF"/>
<rect id="Rectangle Copy 42" x="593" y="267" width="10" height="3" fill="#D0DDFF"/>
<rect id="Rectangle Copy 43" x="593" y="277" width="10" height="3" fill="#D0DDFF"/>
<rect id="Rectangle Copy 44" x="573" y="277" width="10" height="3" fill="#D0DDFF"/>
<rect id="Rectangle Copy 45" x="584" y="297" width="6" height="3" fill="#D0DDFF"/>
<rect id="Rectangle Copy 46" x="594" y="297" width="6" height="3" fill="#D0DDFF"/>
<rect id="Rectangle Copy 47" x="594" y="307" width="6" height="3" fill="#D0DDFF"/>
<rect id="Rectangle Copy 48" x="604" y="307" width="6" height="3" fill="#D0DDFF"/>
<rect id="Rectangle Copy 49" x="604" y="317" width="6" height="3" fill="#D0DDFF"/>
<rect id="Rectangle Copy 50" x="594" y="327" width="16" height="3" fill="#D0DDFF"/>
</g>
<g id="Group 5 Copy 2">
<path id="Rectangle Copy 31_2" d="M28 432L58 332H128V690H28V432Z" fill="url(#paint9_linear)"/>
<path id="Rectangle_8" d="M78 432L128 332H148V690H78V432Z" fill="url(#paint10_linear)"/>
<rect id="Rectangle Copy 14_3" x="62" y="367" width="14" height="3" fill="#D0DDFF"/>
<rect id="Rectangle Copy 32_2" x="82" y="367" width="10" height="3" fill="#D0DDFF"/>
<rect id="Rectangle Copy 33_2" x="52" y="377" width="10" height="3" fill="#D0DDFF"/>
<rect id="Rectangle Copy 34_2" x="52" y="407" width="20" height="3" fill="#D0DDFF"/>
<rect id="Rectangle Copy 35_2" x="52" y="417" width="10" height="3" fill="#D0DDFF"/>
</g>
<g id="Group 5 Copy 3" opacity="0.5">
<path id="Rectangle Copy 31_3" d="M439 227L469 127H539V485H439V227Z" fill="url(#paint11_linear)"/>
<path id="Rectangle_9" d="M489 227L539 127H559V485H489V227Z" fill="url(#paint12_linear)"/>
<rect id="Rectangle Copy 14_4" x="473" y="162" width="14" height="3" fill="#D0DDFF"/>
<rect id="Rectangle Copy 32_3" x="493" y="162" width="10" height="3" fill="#D0DDFF"/>
<rect id="Rectangle Copy 33_3" x="463" y="172" width="10" height="3" fill="#D0DDFF"/>
<rect id="Rectangle Copy 34_3" x="463" y="202" width="20" height="3" fill="#D0DDFF"/>
<rect id="Rectangle Copy 35_3" x="463" y="212" width="10" height="3" fill="#D0DDFF"/>
<rect id="Rectangle Copy 36_2" x="473" y="222" width="7" height="3" fill="#D0DDFF"/>
<rect id="Rectangle Copy 37_2" x="453" y="232" width="10" height="3" fill="#D0DDFF"/>
<rect id="Rectangle Copy 38_2" x="453" y="252" width="10" height="3" fill="#D0DDFF"/>
<rect id="Rectangle Copy 39_2" x="473" y="252" width="6" height="3" fill="#D0DDFF"/>
<rect id="Rectangle Copy 40_2" x="473" y="272" width="6" height="3" fill="#D0DDFF"/>
<rect id="Rectangle Copy 41_2" x="463" y="292" width="16" height="3" fill="#D0DDFF"/>
<rect id="Rectangle Copy 42_2" x="463" y="312" width="10" height="3" fill="#D0DDFF"/>
<rect id="Rectangle Copy 43_2" x="463" y="322" width="10" height="3" fill="#D0DDFF"/>
<rect id="Rectangle Copy 44_2" x="443" y="322" width="10" height="3" fill="#D0DDFF"/>
<rect id="Rectangle Copy 45_2" x="454" y="342" width="6" height="3" fill="#D0DDFF"/>
<rect id="Rectangle Copy 46_2" x="464" y="342" width="6" height="3" fill="#D0DDFF"/>
<rect id="Rectangle Copy 47_2" x="464" y="352" width="6" height="3" fill="#D0DDFF"/>
<rect id="Rectangle Copy 48_2" x="474" y="352" width="6" height="3" fill="#D0DDFF"/>
<rect id="Rectangle Copy 49_2" x="474" y="362" width="6" height="3" fill="#D0DDFF"/>
<rect id="Rectangle Copy 50_2" x="464" y="372" width="16" height="3" fill="#D0DDFF"/>
</g>
<g id="Group 5 Copy">
<path id="Rectangle Copy 31_4" d="M589 317L559 217H489V575H589V317Z" fill="url(#paint13_linear)"/>
<path id="Rectangle_10" d="M539 317L489 217H469V575H539V317Z" fill="url(#paint14_linear)"/>
<rect id="Rectangle Copy 14_5" width="14" height="3" transform="matrix(-1 0 0 1 555 252)" fill="#D0DDFF"/>
<rect id="Rectangle Copy 32_4" width="10" height="3" transform="matrix(-1 0 0 1 535 252)" fill="#D0DDFF"/>
<rect id="Rectangle Copy 33_4" width="10" height="3" transform="matrix(-1 0 0 1 565 262)" fill="#D0DDFF"/>
<rect id="Rectangle Copy 34_4" width="20" height="3" transform="matrix(-1 0 0 1 565 292)" fill="#D0DDFF"/>
<rect id="Rectangle Copy 35_4" width="10" height="3" transform="matrix(-1 0 0 1 565 302)" fill="#D0DDFF"/>
<rect id="Rectangle Copy 36_3" width="7" height="3" transform="matrix(-1 0 0 1 555 312)" fill="#D0DDFF"/>
<rect id="Rectangle Copy 37_3" width="10" height="3" transform="matrix(-1 0 0 1 575 322)" fill="#D0DDFF"/>
<rect id="Rectangle Copy 38_3" width="10" height="3" transform="matrix(-1 0 0 1 575 342)" fill="#D0DDFF"/>
<rect id="Rectangle Copy 39_3" width="6" height="3" transform="matrix(-1 0 0 1 555 342)" fill="#D0DDFF"/>
<rect id="Rectangle Copy 40_3" width="6" height="3" transform="matrix(-1 0 0 1 555 362)" fill="#D0DDFF"/>
<rect id="Rectangle Copy 41_3" width="16" height="3" transform="matrix(-1 0 0 1 565 382)" fill="#D0DDFF"/>
<rect id="Rectangle Copy 42_3" width="10" height="3" transform="matrix(-1 0 0 1 565 402)" fill="#D0DDFF"/>
<rect id="Rectangle Copy 43_3" width="10" height="3" transform="matrix(-1 0 0 1 565 412)" fill="#D0DDFF"/>
<rect id="Rectangle Copy 44_3" width="10" height="3" transform="matrix(-1 0 0 1 585 412)" fill="#D0DDFF"/>
</g>
<g id="Group 7">
<rect id="Rectangle Copy 51" x="664" y="223" width="140" height="217" fill="url(#paint15_linear)"/>
<rect id="Rectangle_11" x="664" y="223" width="80" height="217" fill="url(#paint16_linear)"/>
<rect id="Rectangle Copy 41_4" x="681" y="247" width="16" height="10" fill="#D0DDFF"/>
<rect id="Rectangle Copy 54" x="681" y="287" width="16" height="10" fill="#D0DDFF"/>
<rect id="Rectangle Copy 56" x="681" y="327" width="16" height="10" fill="#D0DDFF"/>
<rect id="Rectangle Copy 58" x="681" y="367" width="16" height="10" fill="#D0DDFF"/>
</g>
<g id="Group 7 Copy" opacity="0.4">
<path id="Rectangle Copy 51_2" d="M309 55H449V432H309V55Z" fill="url(#paint17_linear)"/>
<path id="Rectangle_12" d="M309 55H389V432H309V55Z" fill="url(#paint18_linear)"/>
<rect id="Rectangle Copy 41_5" x="326" y="79" width="16" height="10" fill="#D0DDFF"/>
<rect id="Rectangle Copy 52" x="356" y="79" width="16" height="10" fill="#D0DDFF"/>
<rect id="Rectangle Copy 54_2" x="326" y="119" width="16" height="10" fill="#D0DDFF"/>
<rect id="Rectangle Copy 53" x="356" y="119" width="16" height="10" fill="#D0DDFF"/>
<rect id="Rectangle Copy 56_2" x="326" y="159" width="16" height="10" fill="#D0DDFF"/>
<rect id="Rectangle Copy 55" x="356" y="159" width="16" height="10" fill="#D0DDFF"/>
<rect id="Rectangle Copy 58_2" x="326" y="199" width="16" height="10" fill="#D0DDFF"/>
<rect id="Rectangle Copy 57" x="356" y="199" width="16" height="10" fill="#D0DDFF"/>
</g>
<g id="Rectangle Copy 70" opacity="0.32" filter="url(#filter0_f)">
<path fill-rule="evenodd" clip-rule="evenodd" d="M376.784 215.078C378.654 205.729 386.862 199 396.396 199H520.483C530.58 199 538.153 208.237 536.172 218.138L483.216 482.922C481.346 492.271 473.138 499 463.604 499H339.517C329.42 499 321.847 489.763 323.828 479.862L376.784 215.078Z" fill="#5778D2"/>
</g>
</g>
</g>
<g id="Group 27">
<g id="Rectangle_13" filter="url(#filter1_d)">
<path d="M587.84 156.928C588.819 152.306 592.899 149 597.623 149H705.66C712.017 149 716.76 154.853 715.443 161.072L703.16 219.072C702.181 223.694 698.101 227 693.377 227H585.34C578.983 227 574.24 221.147 575.557 214.928L587.84 156.928Z" fill="white"/>
</g>
<path id="Rectangle Copy 76" d="M661.54 169.791C661.638 169.33 662.046 169 662.518 169H693.764C694.4 169 694.875 169.587 694.742 170.209L693.46 176.209C693.362 176.67 692.954 177 692.482 177H661.236C660.6 177 660.125 176.413 660.258 175.791L661.54 169.791Z" fill="#DFE7FF"/>
<path id="Rectangle Copy 77" d="M657.796 191.478C657.854 191.2 658.099 191 658.384 191H687.406C687.787 191 688.071 191.35 687.994 191.722L687.204 195.522C687.146 195.8 686.9 196 686.616 196H657.594C657.213 196 656.929 195.65 657.006 195.278L657.796 191.478Z" fill="#DFE7FF"/>
<path id="Rectangle Copy 78" d="M654.796 203.478C654.854 203.2 655.099 203 655.384 203H666.406C666.787 203 667.071 203.35 666.994 203.722L666.204 207.522C666.146 207.8 665.9 208 665.616 208H654.594C654.213 208 653.929 207.65 654.006 207.278L654.796 203.478Z" fill="#DFE7FF"/>
<path id="Rectangle Copy 75" opacity="0.5" d="M587.84 156.928C588.819 152.306 592.899 149 597.623 149H652L635.481 227H585.34C578.983 227 574.24 221.147 575.557 214.928L587.84 156.928Z" fill="#E4EAFF"/>
<path id="Combined Shape" opacity="0.2" fill-rule="evenodd" clip-rule="evenodd" d="M646.755 154.881C635.391 172.055 610.461 186.334 610.461 186.334C610.461 186.334 609.013 182 598.338 162C596.071 157.754 595.313 153.418 595.526 149.221C596.204 149.076 596.906 149 597.623 149H648L646.755 154.881Z" fill="url(#paint19_linear)"/>
<g id="447031">
<path id="Combined Shape_2" fill-rule="evenodd" clip-rule="evenodd" d="M617.761 137.797C619.635 138.389 621.445 138.933 623.058 139.406C625.829 141.33 627.319 144.79 626.662 148.73C625.657 154.758 620.002 159.662 614.056 159.662C608.11 159.662 604.09 154.758 605.095 148.73C606.099 142.701 611.754 137.797 617.701 137.797C617.721 137.797 617.741 137.797 617.761 137.797ZM604.12 132.679C599.158 136.656 595.503 142.379 594.445 148.73C591.966 163.599 607.509 185.429 608.172 186.351C608.795 187.217 610.134 187.216 611.044 186.351C612.015 185.429 634.834 163.599 637.312 148.73C638.915 139.112 634.083 130.934 626.002 128.081C618.238 125.101 606.538 125.649 601.197 128.707C599.477 129.692 601.025 131.128 604.12 132.679Z" fill="url(#paint20_linear)"/>
<path id="Shape" fill-rule="evenodd" clip-rule="evenodd" d="M588.066 148.73C588.066 136.748 597.681 127 609.5 127C621.319 127 630.934 136.748 630.934 148.73C630.934 163.599 611.753 185.429 610.936 186.351C610.17 187.216 608.831 187.217 608.064 186.351C607.247 185.429 588.066 163.599 588.066 148.73ZM598.716 148.73C598.716 154.758 603.554 159.662 609.5 159.662C615.446 159.662 620.284 154.758 620.284 148.73C620.284 142.701 615.446 137.797 609.5 137.797C603.554 137.797 598.716 142.701 598.716 148.73Z" fill="url(#paint21_linear)"/>
</g>
</g>
<g id="Group 26">
<g id="Group 30">
<g id="Rectangle Copy 71" filter="url(#filter2_d)">
<path d="M29.2975 309.633C30.1794 305.474 33.8507 302.5 38.1017 302.5H134.891C140.613 302.5 144.883 307.77 143.696 313.367L132.703 365.206C131.821 369.364 128.149 372.339 123.898 372.339H27.1087C21.3867 372.339 17.1175 367.069 18.3045 361.472L29.2975 309.633Z" fill="url(#paint22_linear)"/>
</g>
<mask id="mask4" mask-type="alpha" maskUnits="userSpaceOnUse" x="18" y="302" width="126" height="71">
<path id="Rectangle Copy 71_2" d="M29.2975 309.633C30.1794 305.474 33.8507 302.5 38.1017 302.5H134.891C140.613 302.5 144.883 307.77 143.696 313.367L132.703 365.206C131.821 369.364 128.149 372.339 123.898 372.339H27.1087C21.3867 372.339 17.1175 367.069 18.3045 361.472L29.2975 309.633Z" fill="white"/>
</mask>
<g mask="url(#mask4)">
<path id="Shape_2" fill-rule="evenodd" clip-rule="evenodd" d="M121.372 310.112L121.981 313.68C121.981 313.68 130.763 316.583 130.613 317.027L128.497 323.418C128.355 323.848 117.585 326.997 117.585 326.997L114.621 330.559C114.621 330.559 116.455 338.275 115.966 338.592L108.961 343.113C108.491 343.413 100.051 339.992 100.051 339.992L95.2231 341.465C95.2231 341.465 89.0275 349.471 88.4891 349.471H80.7121C80.1836 349.471 78.9986 341.488 78.9986 341.488L75.1499 340.014C75.1499 340.014 64.5601 343.612 64.2871 343.306L60.2768 338.779C60.0128 338.476 66.7826 330.6 66.7826 330.6L66.1707 327.044C66.1707 327.044 57.3879 324.132 57.5357 323.685L59.6532 317.289C59.7936 316.864 70.5579 313.721 70.5579 313.721L73.5261 310.159C73.5261 310.159 71.703 302.437 72.1868 302.126L79.1853 297.605C79.6542 297.299 88.114 300.721 88.114 300.721L92.9287 299.247C92.9287 299.247 99.1209 291.241 99.6626 291.241H107.44C107.965 291.241 109.148 299.23 109.148 299.23L112.995 300.699C112.995 300.699 123.582 297.101 123.86 297.412L127.877 301.927C128.144 302.23 121.372 310.112 121.372 310.112ZM90.9876 329.686C97.2513 329.686 103.736 325.498 105.438 320.355C107.141 315.211 103.429 311.032 97.1632 311.03C90.9061 311.03 84.417 315.211 82.7145 320.355C81.0119 325.498 84.7306 329.686 90.9876 329.686Z" fill="url(#paint23_linear)"/>
</g>
</g>
<g id="128">
<g id="Group 25">
<path id="Shape Copy 2" fill-rule="evenodd" clip-rule="evenodd" d="M108.621 302.514L110.411 306.77C110.411 306.77 120.154 310.234 120.151 310.764V318.389C120.151 318.902 110.424 322.658 110.424 322.658L108.638 326.908C108.638 326.908 113.027 336.114 112.643 336.492L107.134 341.886C106.971 342.043 99.0093 342.009 99.0093 342.009L97.1907 338.162L92.8508 339.92C92.8508 339.92 89.3053 349.471 88.7669 349.471H80.9899C80.4614 349.471 76.6336 339.946 76.6336 339.946L72.297 338.188C72.297 338.188 62.8982 342.48 62.524 342.116H54.399L57.0154 336.716C56.651 336.354 60.8136 326.957 60.8136 326.957L59.0245 322.714C59.0245 322.714 49.2778 319.24 49.2778 318.708V311.076C49.2778 310.57 59.0015 306.82 59.0015 306.82L60.7907 302.57C60.7907 302.57 56.4114 293.357 56.7922 292.986L54.1692 287.592H62.2942C62.6619 287.227 72.2543 291.31 72.2543 291.31L76.5811 289.551C76.5811 289.551 80.1232 280 80.6649 280H88.4419C88.9672 280 92.7949 289.531 92.7949 289.531L97.1283 291.283L98.7135 287.339C98.7135 287.339 106.781 287.242 106.905 287.362L112.416 292.749C112.784 293.111 108.621 302.514 108.621 302.514ZM84.7159 325.866C90.9795 325.866 96.0778 320.87 96.0778 314.734C96.0778 308.598 90.9828 303.612 84.7159 303.608C78.4588 303.608 73.354 308.598 73.354 314.734C73.354 320.87 78.4588 325.866 84.7159 325.866Z" fill="url(#paint24_linear)"/>
<path id="Shape_3" fill-rule="evenodd" clip-rule="evenodd" d="M100.621 302.257L102.411 306.513C102.411 306.513 112.154 309.977 112.151 310.506V318.131C112.151 318.644 102.424 322.401 102.424 322.401L100.638 326.651C100.638 326.651 105.027 335.857 104.643 336.235L99.1343 341.628C98.7634 341.986 89.1907 337.904 89.1907 337.904L84.8508 339.663C84.8508 339.663 81.3053 349.214 80.7669 349.214H72.9899C72.4614 349.214 68.6336 339.689 68.6336 339.689L64.297 337.931C64.297 337.931 54.8982 342.223 54.524 341.858L49.0154 336.458C48.651 336.097 52.8136 326.7 52.8136 326.7L51.0245 322.457C51.0245 322.457 41.2778 318.983 41.2778 318.45V310.819C41.2778 310.312 51.0015 306.562 51.0015 306.562L52.7907 302.313C52.7907 302.313 48.4114 293.1 48.7922 292.728L54.2942 287.335C54.6619 286.97 64.2543 291.052 64.2543 291.052L68.5811 289.294C68.5811 289.294 72.1232 279.743 72.6649 279.743H80.4419C80.9672 279.743 84.7949 289.274 84.7949 289.274L89.1283 291.026C89.1283 291.026 98.5237 286.734 98.9045 287.105L104.416 292.492C104.784 292.853 100.621 302.257 100.621 302.257ZM76.7159 325.609C82.9795 325.609 88.0778 320.613 88.0778 314.477C88.0778 308.34 82.9828 303.354 76.7159 303.351C70.4588 303.351 65.354 308.34 65.354 314.477C65.354 320.613 70.4588 325.609 76.7159 325.609Z" fill="url(#paint25_linear)"/>
</g>
</g>
</g>
<g id="Group 29">
<g id="Group 26_2">
<path id="Path 43" fill-rule="evenodd" clip-rule="evenodd" d="M651.1 331.032C651.1 323.861 630.488 315.618 617.104 306.287C603.721 296.955 586.9 290.754 574.087 298.52C561.275 306.287 568.321 317.284 598.722 331.032C629.123 344.78 651.1 338.204 651.1 331.032Z" fill="#F6F8FF"/>
<path id="Path 42" d="M653.435 430.218C653.435 430.218 653.195 340.885 651.1 331.032C649.004 321.179 573.519 302.583 573.519 302.583" stroke="#CAD1EE" stroke-width="1.28"/>
</g>
<g id="Group 27_2">
<path id="Path 45" fill-rule="evenodd" clip-rule="evenodd" d="M665.701 344.407C665.701 344.407 667.978 331.254 688.336 324.142C708.694 317.031 736.325 320.659 733.236 334.275C730.146 347.89 703.611 356.525 688.336 356.525C673.061 356.525 665.701 344.407 665.701 344.407Z" fill="#E9EDFA"/>
<path id="Path 45 Copy" fill-rule="evenodd" clip-rule="evenodd" d="M665.701 344.407C665.701 344.407 667.978 331.254 688.336 324.142C708.694 317.031 736.325 320.659 733.236 334.275C730.146 347.89 703.611 356.525 688.336 356.525C673.061 356.525 665.701 344.407 665.701 344.407Z" fill="#EDF2FF"/>
<path id="Path 44" d="M659.832 430.218C659.832 430.218 664.774 400.498 664.774 373.898C664.774 347.298 663.497 346.407 668.778 340.464C674.059 334.522 710.062 324.929 729.035 330.014" stroke="#CAD1EE" stroke-width="1.28" stroke-linecap="round" stroke-linejoin="round"/>
</g>
<g id="Group 25_2">
<path id="Path 47" fill-rule="evenodd" clip-rule="evenodd" d="M622.37 373.898C614.395 370.582 607.893 369.486 595.268 367.943C590.358 367.343 585.695 367.54 584.332 370.356C582.19 374.781 585.465 383.772 587.863 391.774C591.786 404.869 607.603 389.579 611.319 379.398C615.035 369.216 624.815 352.67 626.258 358.664C627.7 364.657 625.116 364.859 622.37 373.898Z" fill="#B8C8F7"/>
<path id="Path 47 Copy" fill-rule="evenodd" clip-rule="evenodd" d="M622.37 373.898C614.395 370.582 607.893 369.486 595.268 367.943C590.358 367.343 585.695 367.54 584.332 370.356C585.532 367.136 594.195 359.367 603.813 357.39C617.112 354.656 624.815 352.67 626.258 358.664C627.7 364.657 625.116 364.859 622.37 373.898Z" fill="#EDF2FF"/>
<path id="Path 46" d="M638.718 427.658C638.718 427.658 625.611 379.615 620.884 369.136C616.157 358.657 602.472 358.664 602.472 358.664" stroke="#CAD1EE" stroke-width="1.28"/>
</g>
<g id="Group 28">
<path id="Path 49" fill-rule="evenodd" clip-rule="evenodd" d="M678.383 378.941C683.81 373.898 729.446 383.356 741.526 391.229C753.606 399.101 753.653 418.236 722.144 412.576C690.635 406.915 672.956 383.984 678.383 378.941Z" fill="#EDF2FF"/>
<path id="Path 48" d="M665.701 429.099C665.701 429.099 673.163 383.172 677.489 379.398C681.814 375.623 710.546 396.349 726.61 400.731C742.674 405.113 748.268 404.02 748.268 404.02" stroke="#B8C0E4" stroke-width="1.28"/>
</g>
<path id="Rectangle_14" d="M615.035 414.858H691.835V443.018C691.835 455.743 681.519 466.058 668.795 466.058H638.075C625.35 466.058 615.035 455.743 615.035 443.018V414.858Z" fill="url(#paint26_linear)"/>
<path id="Rectangle Copy 10_2" opacity="0.8" d="M615.035 414.858H671.035V443.018C671.035 455.743 660.719 466.058 647.995 466.058H638.075C625.35 466.058 615.035 455.743 615.035 443.018V414.858Z" fill="url(#paint27_linear)"/>
<path id="Path" d="M615.035 424.858H691.835" stroke="white" stroke-width="1.28"/>
</g>
<g id="Group 23">
<g id="Group 18">
<path id="Rectangle Copy 68" fill-rule="evenodd" clip-rule="evenodd" d="M478.588 481.353C481.485 479.808 484.717 479 488 479H715C717.082 479 717.778 481.785 715.941 482.765L697.412 492.647C694.515 494.192 691.283 495 688 495H461C458.918 495 458.222 492.215 460.059 491.235L478.588 481.353Z" fill="#6E71D4"/>
<path id="Rectangle_15" d="M478.588 477.353C481.485 475.808 484.717 475 488 475H715C717.082 475 717.778 477.785 715.941 478.765L697.412 488.647C694.515 490.192 691.283 491 688 491H461C458.918 491 458.222 488.215 460.059 487.235L478.588 477.353Z" fill="url(#paint28_linear)"/>
<mask id="mask5" mask-type="alpha" maskUnits="userSpaceOnUse" x="458" y="475" width="260" height="16">
<path id="Rectangle_16" d="M478.588 477.353C481.485 475.808 484.717 475 488 475H715C717.082 475 717.778 477.785 715.941 478.765L697.412 488.647C694.515 490.192 691.283 491 688 491H461C458.918 491 458.222 488.215 460.059 487.235L478.588 477.353Z" fill="white"/>
</mask>
<g mask="url(#mask5)">
<g id="Rectangle Copy 68_2" opacity="0.1" filter="url(#filter3_f)">
<path fill-rule="evenodd" clip-rule="evenodd" d="M474.588 475.353C477.485 473.808 480.717 473 484 473H711C713.082 473 713.778 475.785 711.941 476.765L693.412 486.647C690.515 488.192 687.283 489 684 489H457C454.918 489 454.222 486.215 456.059 485.235L474.588 475.353Z" fill="#5778D2"/>
</g>
</g>
</g>
<g id="Group 18 Copy">
<path id="Rectangle Copy 68_3" d="M465.588 472.353C468.485 470.808 471.717 470 475 470H702C704.082 470 704.778 472.785 702.941 473.765L684.412 483.647C681.515 485.192 678.283 486 675 486H448C445.918 486 445.222 483.215 447.059 482.235L465.588 472.353Z" fill="url(#paint29_linear)"/>
<path id="Rectangle_17" d="M465.588 468.353C468.485 466.808 471.717 466 475 466H702C704.082 466 704.778 468.785 702.941 469.765L684.412 479.647C681.515 481.192 678.283 482 675 482H448C445.918 482 445.222 479.215 447.059 478.235L465.588 468.353Z" fill="url(#paint30_linear)"/>
<mask id="mask6" mask-type="alpha" maskUnits="userSpaceOnUse" x="445" y="466" width="260" height="16">
<path id="Rectangle_18" d="M465.588 468.353C468.485 466.808 471.717 466 475 466H702C704.082 466 704.778 468.785 702.941 469.765L684.412 479.647C681.515 481.192 678.283 482 675 482H448C445.918 482 445.222 479.215 447.059 478.235L465.588 468.353Z" fill="white"/>
</mask>
<g mask="url(#mask6)">
<g id="Rectangle Copy 68_4" opacity="0.1" filter="url(#filter4_f)">
<path fill-rule="evenodd" clip-rule="evenodd" d="M487.588 466.353C490.485 464.808 493.717 464 497 464H724C726.082 464 726.778 466.785 724.941 467.765L706.412 477.647C703.515 479.192 700.283 480 697 480H470C467.918 480 467.222 477.215 469.059 476.235L487.588 466.353Z" fill="#5778D2"/>
</g>
</g>
</g>
<g id="Group 18 Copy 2">
<path id="Rectangle Copy 68_5" d="M493.588 463.353C496.485 461.808 499.717 461 503 461H730C732.082 461 732.778 463.785 730.941 464.765L712.412 474.647C709.515 476.192 706.283 477 703 477H476C473.918 477 473.222 474.215 475.059 473.235L493.588 463.353Z" fill="url(#paint31_linear)"/>
<path id="Rectangle_19" d="M493.588 459.353C496.485 457.808 499.717 457 503 457H730C732.082 457 732.778 459.785 730.941 460.765L712.412 470.647C709.515 472.192 706.283 473 703 473H476C473.918 473 473.222 470.215 475.059 469.235L493.588 459.353Z" fill="url(#paint32_linear)"/>
</g>
<path id="Path 39" opacity="0.8" d="M639 505.232L656.116 494.541L658.699 490.817L662.132 488.22V485.869L664.778 482.055L667.97 479.432L668.389 476.85L671.036 473.035L677.267 468.674L567.365 465.979V497.02L639 505.232Z" fill="url(#paint33_linear)"/>
<g id="Group 6">
<path id="Rectangle Copy 60" d="M437.869 452.573C439.554 449.161 443.03 447 446.836 447H661.347C665.794 447 668.695 451.668 666.727 455.656L644.131 501.427C642.446 504.839 638.97 507 635.164 507H420.653C416.206 507 413.305 502.332 415.273 498.344L437.869 452.573Z" fill="url(#paint34_linear)"/>
<path id="Rectangle_20" d="M434.869 450.573C436.554 447.161 440.03 445 443.836 445H658.347C662.794 445 665.695 449.668 663.727 453.656L641.131 499.427C639.446 502.839 635.97 505 632.164 505H417.653C413.206 505 410.305 500.332 412.273 496.344L434.869 450.573Z" fill="url(#paint35_linear)"/>
<path id="Rectangle Copy 62" opacity="0.5" d="M448.909 487.382C449.047 487.146 449.3 487 449.574 487H508.857C509.449 487 509.818 487.642 509.521 488.154L508.091 490.618C507.953 490.854 507.7 491 507.426 491H448.143C447.551 491 447.182 490.358 447.479 489.846L448.909 487.382Z" fill="#D1DDFF"/>
<path id="Rectangle Copy 64" opacity="0.5" d="M452.909 472.382C453.047 472.146 453.3 472 453.574 472H622.857C623.449 472 623.818 472.642 623.521 473.154L622.091 475.618C621.953 475.854 621.7 476 621.426 476H452.143C451.551 476 451.182 475.358 451.479 474.846L452.909 472.382Z" fill="#D1DDFF"/>
<path id="Rectangle Copy 69" opacity="0.5" d="M604.225 455.321C604.369 455.119 604.602 455 604.849 455H634.634C635.26 455 635.623 455.707 635.259 456.215L632.775 459.679C632.631 459.881 632.398 460 632.151 460H602.366C601.74 460 601.377 459.293 601.741 458.785L604.225 455.321Z" fill="#D1DDFF"/>
<g id="Group 17">
<path id="Oval" opacity="0.34" d="M588.76 495C595.388 495 601.879 492.538 603.26 489.5C604.641 486.462 600.388 484 593.76 484C587.133 484 580.641 486.462 579.26 489.5C577.879 492.538 582.133 495 588.76 495Z" fill="#CBD9FF"/>
<path id="Oval Copy 4" opacity="0.34" d="M601.76 495C608.388 495 614.879 492.538 616.26 489.5C617.641 486.462 613.388 484 606.76 484C600.133 484 593.641 486.462 592.26 489.5C590.879 492.538 595.133 495 601.76 495Z" fill="#BACEFF"/>
</g>
<g id="Rectangle Copy 65">
<path id="Rectangle Copy 62_2" d="M458.933 454.914C459.198 454.356 459.761 454 460.378 454H483.851C485.027 454 485.801 455.225 485.297 456.286L482.067 463.086C481.802 463.644 481.239 464 480.622 464H457.149C455.973 464 455.199 462.775 455.703 461.714L458.933 454.914Z" fill="#D1DDFF"/>
<mask id="mask7" mask-type="alpha" maskUnits="userSpaceOnUse" x="455" y="454" width="31" height="10">
<path id="Rectangle Copy 62_3" d="M458.933 454.914C459.198 454.356 459.761 454 460.378 454H483.851C485.027 454 485.801 455.225 485.297 456.286L482.067 463.086C481.802 463.644 481.239 464 480.622 464H457.149C455.973 464 455.199 462.775 455.703 461.714L458.933 454.914Z" fill="white"/>
</mask>
<g mask="url(#mask7)">
<path id="Rectangle_21" d="M476.081 458.5H488.919C489.601 458.5 490.083 459.169 489.868 459.816C489.731 460.225 489.349 460.5 488.919 460.5H476.081C475.399 460.5 474.917 459.831 475.132 459.184C475.269 458.775 475.651 458.5 476.081 458.5Z" stroke="#FEFEFF"/>
<path id="Rectangle Copy 66" d="M451.081 458.5H463.919C464.601 458.5 465.083 459.169 464.868 459.816C464.731 460.225 464.349 460.5 463.919 460.5H451.081C450.399 460.5 449.917 459.831 450.132 459.184C450.269 458.775 450.651 458.5 451.081 458.5Z" stroke="#FEFEFF"/>
<path id="Rectangle Copy 67" d="M453.081 455.5H465.919C466.601 455.5 467.083 456.169 466.868 456.816C466.731 457.225 466.349 457.5 465.919 457.5H453.081C452.399 457.5 451.917 456.831 452.132 456.184C452.269 455.775 452.651 455.5 453.081 455.5Z" stroke="#FEFEFF"/>
<path id="Path 15" d="M463.861 460.455C463.861 460.455 460.962 462.751 467.824 462.984C474.686 463.218 475 460 475 460" stroke="#FEFEFF"/>
<path id="Path 19" d="M474 461.983L487 462.017" stroke="#FEFEFF" stroke-linecap="round" stroke-linejoin="round"/>
<path id="Path 19 Copy" d="M450 461.983L463 462.017" stroke="#FEFEFF" stroke-linecap="round" stroke-linejoin="round"/>
</g>
</g>
</g>
<g id="Group 19">
<path id="Path 42_2" d="M664.24 452.007L729.31 510.99" stroke="#A0BEFF" stroke-linecap="round" stroke-linejoin="round"/>
<path id="Path 43_2" d="M691.147 425.21L688.022 512.814" stroke="#A0BEFF" stroke-linecap="round" stroke-linejoin="round"/>
<path id="Path 44_2" d="M640.157 505.387L719.364 456.154" stroke="#A0BEFF" stroke-linecap="round" stroke-linejoin="round"/>
<path id="Path 45_2" d="M652.761 474.814H709.247" stroke="#A0BEFF" stroke-linecap="round" stroke-linejoin="round"/>
<path id="Path 46_2" d="M677.859 481.688C677.859 481.688 681.771 483.168 683.601 484.058C685.431 484.948 688.838 487.026 688.838 487.026C688.838 487.026 691.225 484.952 692.639 484.058C694.053 483.164 697.281 481.688 697.281 481.688C697.281 481.688 696.653 479.386 696.822 478.088C696.991 476.79 698.213 474.539 698.213 474.539C698.213 474.539 697.475 473.754 697.281 472.699C697.086 471.643 697.281 469.492 697.281 469.492C697.281 469.492 694.422 468.013 693.124 467.017C691.826 466.021 689.852 463.792 689.852 463.792C689.852 463.792 687.369 466.418 685.737 467.017C684.105 467.616 681.068 467.017 681.068 467.017C681.068 467.017 680.428 469.861 679.69 471.132C678.952 472.403 676.7 474.539 676.7 474.539C676.7 474.539 677.66 476.862 677.859 478.088C678.058 479.315 677.859 481.688 677.859 481.688Z" stroke="#A0BEFF" stroke-linecap="round" stroke-linejoin="round"/>
<path id="Path 47_2" d="M664.398 474.586C664.398 474.586 665.819 478.942 666.109 481.449C666.4 483.955 666.109 489.366 666.109 489.366C666.109 489.366 673.635 490.112 677.718 492.037C681.802 493.963 688.422 499.888 688.422 499.888C688.422 499.888 694.749 494.757 698.319 493.315C701.889 491.874 707.867 492.037 707.867 492.037C707.867 492.037 707.465 480.989 707.867 475.447C708.269 469.905 710.046 461.991 710.046 461.991C710.046 461.991 702.794 459.583 699.357 456.939C695.919 454.294 689.947 446.532 689.947 446.532C689.947 446.532 685.613 451.773 682.197 453.889C678.781 456.004 671.025 458.249 671.025 458.249C671.025 458.249 670.284 463.99 669.115 466.874C667.945 469.757 664.398 474.586 664.398 474.586Z" stroke="#A0BEFF" stroke-linecap="round" stroke-linejoin="round"/>
<path id="Path 49_2" d="M654.121 474.666C654.121 474.666 654.534 483.173 654.121 487.387C653.709 491.602 651.823 498.132 651.823 498.132C651.823 498.132 654.356 504.713 656.138 505.654C657.921 506.594 660.247 507.348 660.247 507.348" stroke="#A0BEFF" stroke-linecap="round" stroke-linejoin="round"/>
<path id="Path 50" d="M686.65 510.936L688.201 508.683C688.201 508.683 696.481 504.324 701.904 503.107C707.328 501.891 718.486 500.825 718.486 500.825C718.486 500.825 719.516 506.521 718.486 507.611C717.457 508.701 716.467 509.041 716.467 509.041" stroke="#A0BEFF" stroke-linecap="round" stroke-linejoin="round"/>
<path id="Path 51" d="M719.293 455.977V462.692" stroke="#A0BEFF" stroke-linecap="round" stroke-linejoin="round"/>
<path id="Path 52" d="M719.556 455.779C719.556 455.779 692.167 439.4 690.871 429.078C678.064 446.078 662.304 447.011 662.304 447.011" stroke="#A0BEFF" stroke-linecap="round" stroke-linejoin="round"/>
</g>
</g>
<g id="Group 15">
<path id="Oval_2" opacity="0.6" d="M159 564C202.078 564 237 558.851 237 552.5C237 546.149 202.078 541 159 541C115.922 541 81 546.149 81 552.5C81 558.851 115.922 564 159 564Z" fill="#E5ECFF"/>
<path id="Oval Copy" opacity="0.4" d="M360 554C419.647 554 468 548.851 468 542.5C468 536.149 419.647 531 360 531C300.353 531 252 536.149 252 542.5C252 548.851 300.353 554 360 554Z" fill="#E5ECFF"/>
<g id="Group 11">
<path id="Rectangle Copy 5" fill-rule="evenodd" clip-rule="evenodd" d="M336.784 195.078C338.654 185.729 346.862 179 356.396 179H480.483C490.58 179 498.153 188.237 496.172 198.138L443.216 462.922C441.346 472.271 433.138 479 423.604 479H299.517C289.42 479 281.847 469.763 283.828 459.862L336.784 195.078Z" fill="#051E44"/>
<g id="Rectangle Copy 61 + Rectangle Copy 59 Mask">
<path id="Mask_7" d="M330.784 189.078C332.654 179.729 340.862 173 350.396 173H474.483C484.58 173 492.153 182.237 490.172 192.138L437.216 456.922C435.346 466.271 427.138 473 417.604 473H293.517C283.42 473 275.847 463.763 277.828 453.862L330.784 189.078Z" fill="url(#paint36_linear)"/>
<mask id="mask8" mask-type="alpha" maskUnits="userSpaceOnUse" x="277" y="173" width="214" height="300">
<path id="Mask_8" d="M330.784 189.078C332.654 179.729 340.862 173 350.396 173H474.483C484.58 173 492.153 182.237 490.172 192.138L437.216 456.922C435.346 466.271 427.138 473 417.604 473H293.517C283.42 473 275.847 463.763 277.828 453.862L330.784 189.078Z" fill="white"/>
</mask>
<g mask="url(#mask8)">
<path id="Oval Copy 3" opacity="0.2" d="M350 466C356.627 466 363.119 460.627 364.5 454C365.881 447.373 361.627 442 355 442C348.373 442 341.881 447.373 340.5 454C339.119 460.627 343.373 466 350 466Z" fill="#5937DA"/>
<path id="Oval_3" d="M351 467C357.627 467 364.119 461.627 365.5 455C366.881 448.373 362.627 443 356 443C349.373 443 342.881 448.373 341.5 455C340.119 461.627 344.373 467 351 467Z" fill="#FCFDFF"/>
<path id="Rectangle Copy 61" fill-rule="evenodd" clip-rule="evenodd" d="M333.809 195.212C334.184 193.344 335.825 192 337.73 192H480.116C482.642 192 484.535 194.312 484.037 196.788L436.191 434.788C435.816 436.656 434.175 438 432.27 438H289.884C287.358 438 285.465 435.688 285.963 433.212L333.809 195.212Z" fill="#757AE9"/>
<path id="Rectangle Copy 59" opacity="0.4" d="M335.075 239.747C335.666 236.978 338.112 235 340.942 235H461.583C465.401 235 468.248 238.519 467.451 242.253L452.925 310.253C452.334 313.022 449.888 315 447.058 315H326.417C322.599 315 319.752 311.481 320.549 307.747L335.075 239.747Z" fill="#4348BF"/>
<g id="Rectangle Copy 60_2" opacity="0.6" filter="url(#filter5_f)">
<path fill-rule="evenodd" clip-rule="evenodd" d="M246.942 147.93C247.921 143.307 252.001 140 256.726 140H466.663C473.019 140 477.762 145.852 476.446 152.07L451.058 272.07C450.079 276.693 445.999 280 441.274 280H231.337C224.981 280 220.238 274.148 221.554 267.93L246.942 147.93Z" fill="#1D147D"/>
</g>
<path id="Path 20" opacity="0.2" d="M491 167.693L292 486L480 505L504 167.459L491 167.693Z" fill="url(#paint37_linear)"/>
<g id="Path 53">
<mask id="mask9" mask-type="alpha" maskUnits="userSpaceOnUse" x="285" y="192" width="200" height="246">
<path id="Mask_9" fill-rule="evenodd" clip-rule="evenodd" d="M333.809 195.212C334.184 193.344 335.825 192 337.73 192H480.116C482.642 192 484.535 194.312 484.037 196.788L436.191 434.788C435.816 436.656 434.175 438 432.27 438H289.884C287.358 438 285.465 435.688 285.963 433.212L333.809 195.212Z" fill="white"/>
</mask>
<g mask="url(#mask9)">
<g id="Group 24" opacity="0.2">
<path id="Path 21" d="M372.577 394.005H415.157L410 405H446.219" stroke="#FBFCFF" stroke-width="4" stroke-linecap="round" stroke-linejoin="round"/>
<path id="Path 54" d="M423 405L410 442" stroke="#FBFCFF" stroke-width="4" stroke-linecap="round" stroke-linejoin="round"/>
<path id="Path 55" d="M414 393.657L431.073 342H489" stroke="#FBFCFF" stroke-width="4" stroke-linecap="round" stroke-linejoin="round"/>
<path id="Path 56" d="M344.406 357H317.992L302.928 310" stroke="#FBFCFF" stroke-width="4" stroke-linecap="round" stroke-linejoin="round"/>
<path id="Path 57" d="M317.992 357L298.549 412V423L292 445" stroke="#FBFCFF" stroke-width="4" stroke-linecap="round" stroke-linejoin="round"/>
<path id="Path 58" d="M374.191 316.334H462.879" stroke="#FBFCFF" stroke-width="4" stroke-linecap="round" stroke-linejoin="round"/>
</g>
<path id="Path 53_2" d="M354.018 440L372.102 395.596C373.442 392.307 371.022 388.71 367.472 388.71H341.157C337.851 388.71 335.455 385.557 336.34 382.371L342.424 360.468C342.879 358.831 344.133 357.537 345.755 357.032L363.755 351.429C365.496 350.887 366.804 349.441 367.168 347.654L384.121 264.595" stroke="#BBBEF4" stroke-width="4" stroke-linecap="round" stroke-linejoin="round"/>
</g>
</g>
</g>
</g>
</g>
<g id="Group 6_2">
<path id="Rectangle Copy 60_3" fill-rule="evenodd" clip-rule="evenodd" d="M247.942 148.93C248.921 144.307 253.001 141 257.726 141H467.663C474.019 141 478.762 146.852 477.446 153.07L452.058 273.07C451.079 277.693 446.999 281 442.274 281H232.337C225.981 281 221.238 275.148 222.554 268.93L247.942 148.93Z" fill="#19CEAF"/>
<path id="Rectangle_22" d="M243.942 145.93C244.921 141.307 249.001 138 253.726 138H463.663C470.019 138 474.762 143.852 473.446 150.07L448.058 270.07C447.079 274.693 442.999 278 438.274 278H228.337C221.981 278 217.238 272.148 218.554 265.93L243.942 145.93Z" fill="url(#paint38_linear)"/>
<path id="Rectangle Copy 62_4" opacity="0.5" d="M256.993 240.594C257.074 240.246 257.384 240 257.741 240H317.224C317.718 240 318.084 240.46 317.972 240.942L316.007 249.406C315.926 249.754 315.616 250 315.259 250H255.776C255.282 250 254.916 249.54 255.028 249.058L256.993 240.594Z" fill="#D1DDFF"/>
<path id="Rectangle Copy 63" opacity="0.5" d="M263.011 204.622C263.081 204.261 263.397 204 263.765 204H429.26C429.742 204 430.105 204.44 430.014 204.914L427.989 215.378C427.919 215.739 427.603 216 427.235 216H261.74C261.258 216 260.895 215.56 260.986 215.086L263.011 204.622Z" fill="#D1DDFF"/>
<g id="Group 17_2">
<path id="Oval_4" opacity="0.34" d="M396.76 257C403.388 257 409.879 251.627 411.26 245C412.641 238.373 408.388 233 401.76 233C395.133 233 388.641 238.373 387.26 245C385.879 251.627 390.133 257 396.76 257Z" fill="#19CEAF"/>
<path id="Oval Copy 4_2" opacity="0.34" d="M409.76 257C416.388 257 422.879 251.627 424.26 245C425.641 238.373 421.388 233 414.76 233C408.133 233 401.641 238.373 400.26 245C398.879 251.627 403.133 257 409.76 257Z" fill="#757AE9"/>
</g>
<g id="Rectangle Copy 65_2">
<path id="Rectangle Copy 62_5" d="M266.511 171.26C266.671 170.525 267.322 170 268.074 170H292.015C293.035 170 293.795 170.943 293.578 171.94L289.489 190.74C289.329 191.475 288.678 192 287.926 192H263.985C262.965 192 262.205 191.057 262.422 190.06L266.511 171.26Z" fill="#D1DDFF"/>
<mask id="mask10" mask-type="alpha" maskUnits="userSpaceOnUse" x="262" y="170" width="32" height="22">
<path id="Rectangle Copy 62_6" d="M266.511 171.26C266.671 170.525 267.322 170 268.074 170H292.015C293.035 170 293.795 170.943 293.578 171.94L289.489 190.74C289.329 191.475 288.678 192 287.926 192H263.985C262.965 192 262.205 191.057 262.422 190.06L266.511 171.26Z" fill="white"/>
</mask>
<g mask="url(#mask10)">
<path id="Rectangle_23" d="M285.118 178.5H296.049C297.285 178.5 298.225 179.61 298.022 180.829L297.855 181.829C297.694 182.793 296.86 183.5 295.882 183.5H284.951C283.715 183.5 282.775 182.39 282.978 181.171L283.145 180.171C283.306 179.207 284.14 178.5 285.118 178.5Z" stroke="#FEFEFF"/>
<path id="Rectangle Copy 66_2" d="M260.118 178.5H271.049C272.285 178.5 273.225 179.61 273.022 180.829L272.855 181.829C272.694 182.793 271.86 183.5 270.882 183.5H259.951C258.715 183.5 257.775 182.39 257.978 181.171L258.145 180.171C258.306 179.207 259.14 178.5 260.118 178.5Z" stroke="#FEFEFF"/>
<path id="Rectangle Copy 67_2" d="M262.118 173.5H273.049C274.285 173.5 275.225 174.61 275.022 175.829L274.855 176.829C274.694 177.793 273.86 178.5 272.882 178.5H261.951C260.715 178.5 259.775 177.39 259.978 176.171L260.145 175.171C260.306 174.207 261.14 173.5 262.118 173.5Z" stroke="#FEFEFF"/>
<path id="Path 15_2" d="M272.167 183C272.167 183 269.345 188.002 276.027 188.51C282.709 189.019 283.015 182.008 283.015 182.008" stroke="#FEFEFF"/>
<path id="Path 19_2" d="M281 187.463L293.981 187.537" stroke="#FEFEFF" stroke-linecap="round" stroke-linejoin="round"/>
<path id="Path 19 Copy_2" d="M259 187.463L271.981 187.537" stroke="#FEFEFF" stroke-linecap="round" stroke-linejoin="round"/>
</g>
</g>
</g>
<g id="Group 3 Copy 15">
<g id="Group 37">
<g id="Group Copy">
<path id="Path 5" fill-rule="evenodd" clip-rule="evenodd" d="M166.347 123.726C166.347 123.726 169.598 119.027 179.138 119.027C188.679 119.027 207.608 141.905 206.925 151.449C206.243 160.993 197.569 162.702 198.183 167.659C198.797 172.617 208.031 181.733 206.925 189.524C205.82 197.314 200.305 197.028 201.181 202.48C202.058 207.932 204.855 216.389 200.404 221.806C195.954 227.223 133.895 208.286 133.895 195.32C133.895 182.355 145.227 180.564 144.676 169.979C144.126 159.393 141.744 157.091 143.21 147.952C144.676 138.814 152.358 127.013 157.558 124.136C162.758 121.258 166.347 123.726 166.347 123.726Z" fill="#051E44"/>
<path id="Path 162" d="M205.495 205.826C205.495 205.826 212.975 190.737 204.149 179.479C195.322 168.221 197.346 164.821 197.346 164.821" stroke="#1D4A8F" stroke-width="0.64" stroke-linecap="round" stroke-linejoin="round"/>
<path id="Path 160" d="M169.202 130.944C169.202 130.944 171.734 125.458 177.765 126.893C183.796 128.328 189.092 135.376 192.633 142.54C198.269 153.94 187.298 162.716 188.186 166.36C189.075 170.003 196.77 183.542 184.677 186.481" stroke="#051E44" stroke-width="0.64" stroke-linecap="round" stroke-linejoin="round"/>
<g id="Group 2">
<path id="Path 9" fill-rule="evenodd" clip-rule="evenodd" d="M175.8 174.635C175.8 174.635 175.511 179.441 175.8 184.259C176.09 189.077 180.974 192.087 180.974 192.087C180.974 192.087 185.814 199.722 177.856 200.115C169.898 200.509 154.655 189.71 154.655 189.71C154.655 189.71 158.979 188.147 161.517 180.986C164.056 173.824 159.836 158.269 159.836 158.269L175.8 174.635Z" fill="#FFBE90"/>
<mask id="mask11" mask-type="alpha" maskUnits="userSpaceOnUse" x="154" y="158" width="29" height="43">
<path id="Path 9_2" fill-rule="evenodd" clip-rule="evenodd" d="M175.8 174.635C175.8 174.635 175.511 179.441 175.8 184.259C176.09 189.077 180.974 192.087 180.974 192.087C180.974 192.087 185.814 199.722 177.856 200.115C169.898 200.509 154.655 189.71 154.655 189.71C154.655 189.71 158.979 188.147 161.517 180.986C164.056 173.824 159.836 158.269 159.836 158.269L175.8 174.635Z" fill="white"/>
</mask>
<g mask="url(#mask11)">
<path id="Path 2" fill-rule="evenodd" clip-rule="evenodd" d="M192.503 146.085C192.503 146.085 192.96 154.796 191.814 162.665C190.668 170.535 183.994 179.299 179.437 180.129C174.881 180.959 166.453 177.43 163.74 168.695C161.027 159.96 162.274 152.519 162.274 147.355C162.274 142.192 163.176 129.224 175.554 129.224C187.932 129.224 192.503 146.085 192.503 146.085Z" fill="#ED9276"/>
</g>
</g>
<path id="Path 2_2" fill-rule="evenodd" clip-rule="evenodd" d="M192.503 142.468C192.503 142.468 192.96 151.179 191.814 159.049C190.668 166.918 183.994 175.683 179.437 176.513C174.881 177.342 166.25 172.855 162.173 165.1C160.807 162.5 159.83 160.012 159.617 157.208C159.19 151.594 156.681 147.193 156.681 143.76C156.681 138.597 163.176 125.608 175.554 125.608C187.932 125.608 192.503 142.468 192.503 142.468Z" fill="#FFBE90"/>
<path id="Path 2 Copy" d="M175.642 176.238C171.059 175.041 165.287 171.024 162.173 165.1C161.943 164.661 161.724 164.226 161.517 163.792" stroke="#E07144" stroke-width="0.576" stroke-linecap="round" stroke-linejoin="round"/>
<g id="Group 9">
<path id="Path 3" fill-rule="evenodd" clip-rule="evenodd" d="M169.31 131.111C172.572 130.759 177.429 130.988 182.388 133.559C187.347 136.13 191.851 140.584 192.589 143.106C193.327 145.628 193.64 147.579 193.64 147.579C193.64 147.579 195.674 139.879 190.247 131.658C184.819 123.437 169.31 126.536 169.31 126.536C169.31 126.536 161.519 124.799 157.699 131.658C153.878 138.518 155.905 146.657 155.905 146.657C155.905 146.657 160.122 149.067 163.888 144.086C167.653 139.106 165.825 134.528 169.31 131.111Z" fill="#000E24"/>
<mask id="mask12" mask-type="alpha" maskUnits="userSpaceOnUse" x="155" y="125" width="40" height="23">
<path id="Path 3_2" fill-rule="evenodd" clip-rule="evenodd" d="M169.31 131.111C172.572 130.759 177.429 130.988 182.388 133.559C187.347 136.13 191.851 140.584 192.589 143.106C193.327 145.628 193.64 147.579 193.64 147.579C193.64 147.579 195.674 139.879 190.247 131.658C184.819 123.437 169.31 126.536 169.31 126.536C169.31 126.536 161.519 124.799 157.699 131.658C153.878 138.518 155.905 146.657 155.905 146.657C155.905 146.657 160.122 149.067 163.888 144.086C167.653 139.106 165.825 134.528 169.31 131.111Z" fill="white"/>
</mask>
<g mask="url(#mask12)">
<path id="Path 40" d="M172.871 131.467C172.871 131.467 177.812 126.359 186.56 132.082" stroke="#051E44" stroke-width="0.64" stroke-linecap="round" stroke-linejoin="round"/>
<path id="Path 41" d="M178.942 132.691C178.942 132.691 183.598 131.382 191.201 139.132" stroke="#051E44" stroke-width="0.64" stroke-linecap="round" stroke-linejoin="round"/>
</g>
</g>
<path id="Path 3 Copy" fill-rule="evenodd" clip-rule="evenodd" d="M169.31 131.11C170.677 125.607 178.658 125.607 182.666 129.156C186.673 132.705 191.851 140.584 192.589 143.106C193.327 145.627 193.642 151.624 193.642 151.624C193.642 151.624 196.648 139.331 191.22 131.11C185.793 122.889 169.31 124.615 169.31 124.615C169.31 124.615 160.687 124.251 156.867 131.11C153.047 137.97 155.905 146.657 155.905 146.657C155.905 146.657 160.122 149.066 163.888 144.086C167.653 139.105 165.825 134.528 169.31 131.11Z" fill="#051E44"/>
<path id="Path 160_2" d="M169.202 130.944C169.202 130.944 171.734 125.458 177.765 126.893C183.796 128.328 189.092 135.376 192.633 142.54C194.288 145.887 194.511 149.008 194.023 151.84" stroke="#1D4A8F" stroke-width="0.64" stroke-linecap="round" stroke-linejoin="round"/>
<path id="Path 48_2" d="M169.097 131.074C169.097 131.074 167.796 133.487 167.565 137.676C167.333 141.865 167.024 145.901 164.401 147.37C161.777 148.839 160.207 147.285 158.896 146.806" stroke="#051E44" stroke-width="0.64" stroke-linecap="round" stroke-linejoin="round"/>
<path id="Path 4" fill-rule="evenodd" clip-rule="evenodd" d="M159.729 147.466C159.729 147.466 157.019 145.25 155.231 147.217C153.444 149.183 156.22 156.338 158.035 157.123C159.849 157.909 159.729 156.341 159.729 156.341V147.466Z" fill="#FFBE90"/>
<path id="Path 6" d="M183.262 149.703C183.262 149.703 183.626 159.553 183.626 160.11C183.626 160.667 180.974 161.757 180.974 161.757" stroke="#E07144" stroke-width="0.6912" stroke-linecap="round" stroke-linejoin="round"/>
<path id="Mask_10" fill-rule="evenodd" clip-rule="evenodd" d="M174.617 151.09C174.046 151.09 173.582 150.511 173.582 149.798C173.582 149.085 174.046 148.506 174.617 148.506C175.189 148.506 175.652 149.085 175.652 149.798C175.652 150.511 175.189 151.09 174.617 151.09Z" fill="black"/>
<path id="Oval Copy 2" fill-rule="evenodd" clip-rule="evenodd" d="M188.969 152.238C188.397 152.238 187.934 151.66 187.934 150.946C187.934 150.233 188.397 149.655 188.969 149.655C189.54 149.655 190.004 150.233 190.004 150.946C190.004 151.66 189.54 152.238 188.969 152.238Z" fill="black"/>
<path id="Path 7" d="M177.381 145.293C177.381 145.293 174.928 144.326 172.886 144.648C170.844 144.971 169.509 146.116 169.509 146.116" stroke="#051E44" stroke-width="1.0368" stroke-linecap="round" stroke-linejoin="round"/>
<path id="Path 8" d="M186.39 145.702C186.39 145.702 188.54 145.244 189.893 145.55C191.247 145.856 192.483 147.349 192.483 147.349" stroke="#051E44" stroke-width="1.0368" stroke-linecap="round" stroke-linejoin="round"/>
<path id="Path 10" d="M184.354 166.808C184.354 166.808 182.775 167.772 180.648 167.451C178.522 167.129 176.498 165.244 176.498 165.244" stroke="url(#paint39_linear)" stroke-width="1.152" stroke-linecap="round" stroke-linejoin="round"/>
<path id="Path 23" d="M158.949 152.625C158.949 152.625 158.086 151.78 158.517 150.949C158.949 150.119 158.789 148.716 157.576 148.205C156.363 147.694 156.165 148.205 156.165 148.205" stroke="#E07144" stroke-width="0.576" stroke-linecap="round" stroke-linejoin="round"/>
<path id="Path 161" d="M168.304 127.611C168.304 127.611 170.876 123.671 177.765 123.315C184.654 122.958 198.374 136.549 202.402 146.978C206.429 157.407 193.906 159.98 192.901 165.35C191.896 170.721 203.088 185.825 195.798 194.706" stroke="#1D4A8F" stroke-width="0.64" stroke-linecap="round" stroke-linejoin="round"/>
</g>
<g id="Group 22">
<g id="Group 21">
<path id="Path 63" fill-rule="evenodd" clip-rule="evenodd" d="M245.665 223.181C243.58 221.93 242.297 219.918 242.776 218.317C243.254 216.716 245.481 214.885 245.481 211.786C245.481 211.003 244.653 206.198 245 204.328C245.665 200.745 245 197.705 245 195.87C246.145 194.471 248.257 197.406 248.257 199.164C248.257 200.922 248.401 201.465 248.576 202.271C248.751 203.077 249.04 203.314 249.509 204.142C250.036 203.748 252.689 198.98 253.397 197.251C254.105 195.523 255.374 189.589 256.025 188.113C256.281 187.534 257.427 187.104 257.904 187.683C258.036 187.843 257.955 188.309 257.904 188.635C258.095 187.659 259.275 186.772 260.113 187.476C260.319 187.683 260.086 189.286 259.949 190.608C260.47 190.198 261.418 190.198 261.418 190.805C261.418 192.935 260.47 196.262 260.113 198.51C260.319 200.504 260.693 202.622 260.487 204.679C260.35 206.047 260.152 208.965 255.057 215.909C253.684 217.426 251.213 222.089 250.616 223.234C250.018 224.378 247.75 224.431 245.665 223.181Z" fill="#FFBE90"/>
<path id="Path 18" d="M257.986 188.51C257.986 188.51 257.17 193.07 256.735 194.92C256.3 196.771 255.145 200.373 255.145 200.373" stroke="#E07144" stroke-width="0.576" stroke-linecap="round" stroke-linejoin="round"/>
<path id="Path 65" d="M259.912 190.621C259.122 191.136 258.478 193.551 258.248 194.91C258.019 196.27 256.889 200.852 256.089 202.567" stroke="#E07144" stroke-width="0.576" stroke-linecap="round" stroke-linejoin="round"/>
<g id="Path 64">
<path fill-rule="evenodd" clip-rule="evenodd" d="M260.074 198.49C260.074 198.49 259.591 195.655 259.312 194.438C258.196 194.014 257.621 194.858 257.828 197.869C257.877 198.585 258.082 199.837 258.067 200.508C257.996 203.686 257.479 204.948 257.479 204.948" fill="#FFBE90"/>
<path d="M260.074 198.49C260.074 198.49 259.591 195.655 259.312 194.438C258.196 194.014 257.621 194.858 257.828 197.869C257.877 198.585 258.082 199.837 258.067 200.508C257.996 203.686 257.479 204.948 257.479 204.948" stroke="#E07144" stroke-width="0.576" stroke-linecap="round" stroke-linejoin="round"/>
</g>
<path id="Path 66" d="M248.273 200.422C248.273 200.422 247.937 200.664 247.172 200.422" stroke="#E07144" stroke-width="0.576" stroke-linecap="round" stroke-linejoin="round"/>
</g>
<g id="Group 51">
<path id="Path 92" fill-rule="evenodd" clip-rule="evenodd" d="M238.73 223.573L242.94 217.179L252.117 223.413L248.495 230.784L238.73 223.573Z" fill="#19CEAF"/>
<mask id="mask13" mask-type="alpha" maskUnits="userSpaceOnUse" x="238" y="217" width="15" height="14">
<path id="Path 92_2" fill-rule="evenodd" clip-rule="evenodd" d="M238.73 223.573L242.94 217.179L252.117 223.413L248.495 230.784L238.73 223.573Z" fill="white"/>
</mask>
<g mask="url(#mask13)">
<path id="Path 93" opacity="0.5" fill-rule="evenodd" clip-rule="evenodd" d="M251.349 228.919L231.88 215.487L247.624 239.133L251.349 228.919Z" fill="#5636D8"/>
</g>
</g>
<g id="Group 61">
<path id="Path 17" fill-rule="evenodd" clip-rule="evenodd" d="M195.569 194.768C199.107 197.169 201.574 200.904 204.339 212.831C207.104 224.757 213.808 253.642 213.808 253.642C213.808 253.642 237.733 224.805 239.708 221.217C242.68 223.555 245.123 225.944 249.806 229.841C249.138 232.829 222.778 281.351 209.635 277.063C196.492 272.775 191.61 235.739 187.989 227C185.039 219.88 175.443 198.91 178.942 191.627C179.738 189.971 194.914 194.323 195.569 194.768Z" fill="#757AE9"/>
<mask id="mask14" mask-type="alpha" maskUnits="userSpaceOnUse" x="178" y="191" width="72" height="87">
<path id="Path 17_2" fill-rule="evenodd" clip-rule="evenodd" d="M195.569 194.768C199.107 197.169 201.574 200.904 204.339 212.831C207.104 224.757 213.808 253.642 213.808 253.642C213.808 253.642 237.733 224.805 239.708 221.217C242.68 223.555 245.123 225.944 249.806 229.841C249.138 232.829 222.778 281.351 209.635 277.063C196.492 272.775 191.61 235.739 187.989 227C185.039 219.88 175.443 198.91 178.942 191.627C179.738 189.971 194.914 194.323 195.569 194.768Z" fill="white"/>
</mask>
<g mask="url(#mask14)">
<path id="Shape_4" d="M213.808 253.642C229.758 234.417 238.392 223.609 239.708 221.217C242.68 223.555 247.2 227.697 251.883 231.594" stroke="black" stroke-width="0.8" stroke-linecap="round"/>
<path id="Path 67" d="M213.908 253.229C213.908 253.229 211.612 258.201 211.239 262.23" stroke="#051E44" stroke-width="0.8" stroke-linecap="round"/>
<path id="Path 30" opacity="0.4" fill-rule="evenodd" clip-rule="evenodd" d="M196.968 199.503C196.968 199.503 207.017 233.117 207.017 249.538C207.017 265.959 208.117 282.755 208.117 282.755L192.483 270.507L196.968 199.503Z" fill="url(#paint40_linear)"/>
</g>
</g>
<path id="Shape_5" d="M213.808 253.642C229.758 234.417 238.392 223.609 239.708 221.217C242.68 223.555 245.123 225.952 249.806 229.849" stroke="#051E44" stroke-width="0.8" stroke-linecap="round" stroke-linejoin="round"/>
</g>
<path id="Path 27" fill-rule="evenodd" clip-rule="evenodd" d="M177.872 189.419C177.872 189.419 184.763 195.041 190.535 205.826C196.307 216.611 201.894 225.857 201.894 232.172C201.894 238.487 201.415 261.35 201.415 277.335C201.415 293.32 205.446 302.033 205.446 302.033C205.446 302.033 195.701 302.182 186.787 299.557C177.872 296.931 177.872 189.419 177.872 189.419Z" fill="url(#paint41_linear)"/>
<g id="Group 8">
<path id="Path 24" d="M138.811 507.796C138.811 507.796 133.337 512.381 131.394 513.791C129.452 515.2 130.711 520.299 130.081 523.897C129.452 527.495 126.169 533.359 127.81 539.628C129.452 545.896 136.215 554.337 140.381 552.619C144.548 550.901 143.374 543.075 142.78 536.698C142.185 530.32 138.811 507.796 138.811 507.796Z" fill="#051E44"/>
<path id="Path 26" d="M168.392 521.536C168.392 521.536 165.1 526.761 165.1 529.75C165.1 532.739 168.398 536.593 169.668 540.663C170.938 544.732 174.565 553.151 183.422 554.971C192.28 556.79 193.95 553.422 193.002 550.49C192.054 547.558 183.357 537.896 183.357 537.896L168.392 521.536Z" fill="#051E44"/>
<g id="Path 28">
<path id="Path 25" fill-rule="evenodd" clip-rule="evenodd" d="M200.197 351.98C200.197 351.98 191.265 416.542 187.998 436.141C184.73 455.741 179.826 521.017 179.826 525.43C179.826 529.844 189.103 542.912 188.8 544.68C188.497 546.449 181.518 548.339 177.177 543.378C172.837 538.417 167.053 529.275 167.053 526.679C167.053 524.082 169.057 519.756 169.057 517.407C169.057 515.058 165.049 470.328 167.053 457.338C169.057 444.348 167.053 333.557 167.053 333.557L200.197 351.98Z" fill="#FFBE90"/>
<mask id="mask15" mask-type="alpha" maskUnits="userSpaceOnUse" x="166" y="333" width="35" height="214">
<path id="Path 25_2" fill-rule="evenodd" clip-rule="evenodd" d="M200.197 351.98C200.197 351.98 191.265 416.542 187.998 436.141C184.73 455.741 179.826 521.017 179.826 525.43C179.826 529.844 189.103 542.912 188.8 544.68C188.497 546.449 181.518 548.339 177.177 543.378C172.837 538.417 167.053 529.275 167.053 526.679C167.053 524.082 169.057 519.756 169.057 517.407C169.057 515.058 165.049 470.328 167.053 457.338C169.057 444.348 167.053 333.557 167.053 333.557L200.197 351.98Z" fill="white"/>
</mask>
<g mask="url(#mask15)">
<path id="Path 34" fill-rule="evenodd" clip-rule="evenodd" d="M165.1 485.654L190.237 450.688L198.682 382.287L149.529 374.765L165.1 485.654Z" fill="#ED9276"/>
</g>
</g>
<g id="Path 37">
<path id="Path 22" fill-rule="evenodd" clip-rule="evenodd" d="M142.251 317.233C138.731 331.923 166.469 420.104 166.469 424.481C166.469 428.859 156.662 446.957 153.269 458.091C149.876 469.225 144.814 497.179 142.746 501.271C140.677 505.363 137.524 508.237 136.283 511.469C135.042 514.702 131.302 525.351 130.692 531.974C130.081 538.596 136.724 541.496 140.135 541.496C143.546 541.496 142.592 539.464 144.167 533.415C145.741 527.367 148.839 514.71 151.032 508.859C152.028 506.202 158.19 489.232 166.306 475.389C176.055 458.759 188.792 434.366 189.554 430.169C190.95 422.478 187.998 320.204 187.998 320.204C187.998 320.204 145.77 302.542 142.251 317.233Z" fill="#FFBE90"/>
<mask id="mask16" mask-type="alpha" maskUnits="userSpaceOnUse" x="130" y="311" width="60" height="231">
<path id="Path 22_2" fill-rule="evenodd" clip-rule="evenodd" d="M142.251 317.233C138.731 331.923 166.469 420.104 166.469 424.481C166.469 428.859 156.662 446.957 153.269 458.091C149.876 469.225 144.814 497.179 142.746 501.271C140.677 505.363 137.524 508.237 136.283 511.469C135.042 514.702 131.302 525.351 130.692 531.974C130.081 538.596 136.724 541.496 140.135 541.496C143.546 541.496 142.592 539.464 144.167 533.415C145.741 527.367 148.839 514.71 151.032 508.859C152.028 506.202 158.19 489.232 166.306 475.389C176.055 458.759 188.792 434.366 189.554 430.169C190.95 422.478 187.998 320.204 187.998 320.204C187.998 320.204 145.77 302.542 142.251 317.233Z" fill="white"/>
</mask>
<g mask="url(#mask16)">
<path id="Rectangle_24" fill-rule="evenodd" clip-rule="evenodd" d="M147.471 387.923H200.33V410.333L147.471 415.936V387.923Z" fill="#ED9276"/>
</g>
</g>
<g id="Path 35">
<path id="Path 16" d="M151.451 272.634C148.425 288.278 135.202 303.084 137.288 327.371C139.374 351.657 146.649 374.092 148.425 382.609C150.201 391.126 151.451 406.184 151.451 406.184L196.687 404.952C196.687 404.952 204.968 335.896 203.197 313.81C201.427 291.723 196.968 277.335 196.968 277.335C196.968 277.335 154.478 256.99 151.451 272.634Z" fill="#051E44"/>
<mask id="mask17" mask-type="alpha" maskUnits="userSpaceOnUse" x="137" y="266" width="67" height="141">
<path id="Path 16_2" d="M151.451 272.634C148.425 288.278 135.202 303.084 137.288 327.371C139.374 351.657 146.649 374.092 148.425 382.609C150.201 391.126 151.451 406.184 151.451 406.184L196.687 404.952C196.687 404.952 204.968 335.896 203.197 313.81C201.427 291.723 196.968 277.335 196.968 277.335C196.968 277.335 154.478 256.99 151.451 272.634Z" fill="white"/>
</mask>
<g mask="url(#mask17)">
<path id="Path 35_2" d="M154.015 282.441C154.015 282.441 173.649 287.415 185.77 285.642C197.892 283.869 199.422 281.19 200.68 279.663" stroke="#2F3C87" stroke-width="3.2"/>
<path id="Path 36" d="M181.562 283.908L181.873 288.357C181.873 288.357 184.999 288.013 186.56 287.812C188.121 287.611 190.237 287.28 190.237 287.28L189.684 282.755L181.562 283.908Z" stroke="#504FC1" stroke-width="0.8" stroke-linecap="round" stroke-linejoin="round"/>
</g>
</g>
<path id="Path 62" fill-rule="evenodd" clip-rule="evenodd" d="M165.647 527.583C164.083 530.785 164.073 536.695 163.402 539.21C162.732 541.725 162.595 542.288 162.595 542.288C162.595 542.288 162.957 544.219 163.6 543.253C164.243 542.288 166.492 537.462 166.492 537.462C166.492 537.462 168.176 537.978 170.19 541.901C172.203 545.825 173.39 544.78 173.39 544.78C173.39 544.78 168.989 537.821 167.318 533.442C165.647 529.064 167.211 524.381 165.647 527.583Z" fill="#051E44"/>
<path id="Path 62 Copy" fill-rule="evenodd" clip-rule="evenodd" d="M136.004 510.333C133.783 511.803 132.144 513.538 129.839 514.72C127.534 515.901 126.237 516.722 126.237 516.722C126.237 516.722 124.999 518.241 126.119 518.058C127.238 517.874 130.942 517.003 130.942 517.003C130.942 517.003 130.912 518.241 130.652 522.284C130.392 526.326 134.769 513.327 136.004 510.333Z" fill="#051E44"/>
</g>
<g id="Group">
<path id="Path 11" fill-rule="evenodd" clip-rule="evenodd" d="M168.771 187.225C164.682 187.931 132.787 195.378 131.079 197.169C129.37 198.959 132.673 217.59 136.652 227.955C144.323 247.937 148.165 262.032 147.354 276.908C157.619 279.68 183.202 286.333 197.769 278.079C197.769 264.047 198.078 253.127 199.552 244.716C203.058 240.725 202.714 235.373 202.396 232.113C201.493 222.83 193.063 194.987 187.934 192.966C182.805 190.944 172.86 186.519 168.771 187.225Z" fill="#FFBE90"/>
<mask id="mask18" mask-type="alpha" maskUnits="userSpaceOnUse" x="130" y="187" width="73" height="96">
<path id="Path 11_2" fill-rule="evenodd" clip-rule="evenodd" d="M168.771 187.225C164.682 187.931 132.787 195.378 131.079 197.169C129.37 198.959 132.673 217.59 136.652 227.955C144.323 247.937 148.165 262.032 147.354 276.908C157.619 279.68 183.202 286.333 197.769 278.079C197.769 264.047 198.078 253.127 199.552 244.716C203.058 240.725 202.714 235.373 202.396 232.113C201.493 222.83 193.063 194.987 187.934 192.966C182.805 190.944 172.86 186.519 168.771 187.225Z" fill="white"/>
</mask>
<g mask="url(#mask18)">
<path id="Path 29 Copy" opacity="0.5" fill-rule="evenodd" clip-rule="evenodd" d="M156.681 196.169C156.681 196.169 167.273 205.179 178.185 205.179C189.097 205.179 185.284 193.875 185.284 193.875L218.608 217.81L203.197 283.343H136.137L126.052 200.727L156.681 196.169Z" fill="#ED9276"/>
<path id="Path 29" fill-rule="evenodd" clip-rule="evenodd" d="M156.681 197.169C156.681 197.169 167.273 206.179 178.185 206.179C189.097 206.179 185.284 194.875 185.284 194.875L218.608 218.81L203.197 284.343H136.137L126.052 201.727L156.681 197.169Z" fill="#19CEAF"/>
<path id="Path 14" opacity="0.2" fill-rule="evenodd" clip-rule="evenodd" d="M177.3 187.223C181.562 192.926 187.139 202.974 194.713 215.487C202.287 228 202.57 238.306 202.57 238.306L197.975 190C197.975 190 173.037 181.519 177.3 187.223Z" fill="#42308C"/>
<path id="Path 61" opacity="0.2" fill-rule="evenodd" clip-rule="evenodd" d="M158.5 197.808C158.5 197.808 168.075 225.368 170.288 265C172.5 304.632 165.647 314.737 165.647 314.737L139 283.343L158.5 197.808Z" fill="#42308C"/>
</g>
</g>
<path id="Path 27 Copy" fill-rule="evenodd" clip-rule="evenodd" d="M177.3 188.83C177.3 188.83 184.763 195.041 190.535 205.826C196.307 216.611 201.894 225.857 201.894 232.172C201.894 238.487 201.415 261.35 201.415 277.335C201.415 293.32 205.446 302.033 205.446 302.033C205.446 302.033 201.591 286.784 202.695 267.852C203.8 248.92 203.496 232.679 202.695 221.58C201.894 210.481 199.559 198.508 195.552 195.744C191.544 192.98 177.3 188.83 177.3 188.83Z" fill="#757AE9"/>
<g id="Path 33">
<path id="Mask_11" fill-rule="evenodd" clip-rule="evenodd" d="M155.988 189.019C155.988 189.019 165.044 207.795 166.674 233.472C168.304 259.149 167.922 268.178 166.674 279.823C165.425 291.468 160.65 303.34 160.65 303.34C160.65 303.34 151.949 304.322 144.711 303.34C137.473 302.358 136.606 299.858 136.606 299.858C136.606 299.858 145.975 285.47 145.975 271.638C145.975 257.806 137.668 233.339 133.895 221.217C130.122 209.095 130.476 196.307 130.476 196.307C130.476 196.307 132.271 194.971 136.606 194.03C150.176 191.084 155.988 189.019 155.988 189.019Z" fill="#757AE9"/>
<mask id="mask19" mask-type="alpha" maskUnits="userSpaceOnUse" x="130" y="189" width="38" height="115">
<path id="Mask_12" fill-rule="evenodd" clip-rule="evenodd" d="M155.988 189.019C155.988 189.019 165.044 207.795 166.674 233.472C168.304 259.149 167.922 268.178 166.674 279.823C165.425 291.468 160.65 303.34 160.65 303.34C160.65 303.34 151.949 304.322 144.711 303.34C137.473 302.358 136.606 299.858 136.606 299.858C136.606 299.858 145.975 285.47 145.975 271.638C145.975 257.806 137.668 233.339 133.895 221.217C130.122 209.095 130.476 196.307 130.476 196.307C130.476 196.307 132.271 194.971 136.606 194.03C150.176 191.084 155.988 189.019 155.988 189.019Z" fill="white"/>
</mask>
<g mask="url(#mask19)">
<path id="Path 33_2" opacity="0.3" fill-rule="evenodd" clip-rule="evenodd" d="M137.848 203.038C137.848 203.038 153.25 242.246 144.577 262.053C135.904 281.86 113.27 237.862 113.27 237.862L137.848 203.038Z" fill="url(#paint42_linear)"/>
</g>
</g>
<g id="Group 20">
<path id="Path 38" d="M132.966 279.663C132.966 279.663 134.134 281.75 136.089 283C138.045 284.25 139.546 282.634 142.37 282.136C145.193 281.638 147.228 281.694 148.296 282.205C149.364 282.715 159.238 288.906 159.238 288.906C159.238 288.906 158.851 290.65 156.307 289.423C153.763 288.195 149.822 285.809 148.865 285.429C147.908 285.049 146.486 284.295 149.289 286.046C152.093 287.798 158.765 291.361 158.765 291.361C158.765 291.361 157.838 293.25 154.446 291.317C151.055 289.383 146.748 286.9 146.748 286.9C146.748 286.9 149.997 289.523 151.69 290.645C153.382 291.768 155.19 293.092 155.19 293.092C155.19 293.092 153.874 294.535 152.214 293.617C150.553 292.699 146.089 289.464 146.089 289.464L151.808 294.765C151.808 294.765 150.342 296.711 146.855 293.805C143.368 290.898 138.349 295.099 136.445 294.473C134.54 293.848 127.355 288.358 127.355 288.358L132.966 279.663Z" fill="#FFBE90"/>
<path id="Path 13" fill-rule="evenodd" clip-rule="evenodd" d="M130.652 275.665L136.604 283L129.82 291.741L121.659 284.004L130.652 275.665Z" fill="#19CEAF"/>
<path id="Path 12" fill-rule="evenodd" clip-rule="evenodd" d="M130.452 196.304C126.343 199.673 91.3051 248.325 93.0816 253.499C96.4331 263.259 125 290.109 125 290.109L134.754 280.391C134.754 280.391 117.554 255.984 114.432 252.642C123.628 240.233 140.896 224.069 141.765 220.65C142.517 217.693 142.05 210.377 139.615 204.84C136.934 198.745 132.604 194.54 130.452 196.304Z" fill="#757AE9"/>
</g>
</g>
<g id="Group 10">
<path id="Path 31" d="M133.895 194.706C133.895 194.706 137.192 195.744 142.694 196.718C148.196 197.692 152.959 196.718 156.881 193.209C160.802 189.699 161.988 180.791 162.359 177.009C162.729 173.226 147.942 170.273 147.942 170.273L133.895 194.706Z" fill="#051E44"/>
<path id="Path 32" d="M159.818 160.957C161.567 168.331 165.398 186.733 161.567 193.83C157.735 200.926 138.68 195.363 138.68 195.363" stroke="#051E44" stroke-width="0.64" stroke-linecap="round" stroke-linejoin="round"/>
</g>
</g>
</g>
</g>
<defs>
<filter id="filter0_f" x="285.455" y="160.944" width="289.089" height="376.112" filterUnits="userSpaceOnUse" color-interpolation-filters="sRGB">
<feFlood flood-opacity="0" result="BackgroundImageFix"/>
<feBlend mode="normal" in="SourceGraphic" in2="BackgroundImageFix" result="shape"/>
<feGaussianBlur stdDeviation="19.028" result="effect1_foregroundBlur"/>
</filter>
<filter id="filter1_d" x="555.336" y="129" width="220.328" height="158" filterUnits="userSpaceOnUse" color-interpolation-filters="sRGB">
<feFlood flood-opacity="0" result="BackgroundImageFix"/>
<feColorMatrix in="SourceAlpha" type="matrix" values="0 0 0 0 0 0 0 0 0 0 0 0 0 0 0 0 0 0 127 0"/>
<feOffset dx="20" dy="20"/>
<feGaussianBlur stdDeviation="20"/>
<feColorMatrix type="matrix" values="0 0 0 0 0.611765 0 0 0 0 0.709804 0 0 0 0 0.968627 0 0 0 0.4 0"/>
<feBlend mode="normal" in2="BackgroundImageFix" result="effect1_dropShadow"/>
<feBlend mode="normal" in="SourceGraphic" in2="effect1_dropShadow" result="shape"/>
</filter>
<filter id="filter2_d" x="0.105321" y="284.5" width="197.789" height="141.839" filterUnits="userSpaceOnUse" color-interpolation-filters="sRGB">
<feFlood flood-opacity="0" result="BackgroundImageFix"/>
<feColorMatrix in="SourceAlpha" type="matrix" values="0 0 0 0 0 0 0 0 0 0 0 0 0 0 0 0 0 0 127 0"/>
<feOffset dx="18" dy="18"/>
<feGaussianBlur stdDeviation="18"/>
<feColorMatrix type="matrix" values="0 0 0 0 0.611765 0 0 0 0 0.709804 0 0 0 0 0.968627 0 0 0 0.4 0"/>
<feBlend mode="normal" in2="BackgroundImageFix" result="effect1_dropShadow"/>
<feBlend mode="normal" in="SourceGraphic" in2="effect1_dropShadow" result="shape"/>
</filter>
<filter id="filter3_f" x="452.279" y="470.282" width="263.443" height="21.4366" filterUnits="userSpaceOnUse" color-interpolation-filters="sRGB">
<feFlood flood-opacity="0" result="BackgroundImageFix"/>
<feBlend mode="normal" in="SourceGraphic" in2="BackgroundImageFix" result="shape"/>
<feGaussianBlur stdDeviation="1.35914" result="effect1_foregroundBlur"/>
</filter>
<filter id="filter4_f" x="465.279" y="461.282" width="263.443" height="21.4366" filterUnits="userSpaceOnUse" color-interpolation-filters="sRGB">
<feFlood flood-opacity="0" result="BackgroundImageFix"/>
<feBlend mode="normal" in="SourceGraphic" in2="BackgroundImageFix" result="shape"/>
<feGaussianBlur stdDeviation="1.35914" result="effect1_foregroundBlur"/>
</filter>
<filter id="filter5_f" x="156.095" y="74.7612" width="385.811" height="270.478" filterUnits="userSpaceOnUse" color-interpolation-filters="sRGB">
<feFlood flood-opacity="0" result="BackgroundImageFix"/>
<feBlend mode="normal" in="SourceGraphic" in2="BackgroundImageFix" result="shape"/>
<feGaussianBlur stdDeviation="32.6194" result="effect1_foregroundBlur"/>
</filter>
<linearGradient id="paint0_linear" x1="57" y1="0" x2="57" y2="427" gradientUnits="userSpaceOnUse">
<stop stop-color="#FBFCFF"/>
<stop offset="1" stop-color="#E2EAFF"/>
</linearGradient>
<linearGradient id="paint1_linear" x1="145" y1="236" x2="145" y2="594" gradientUnits="userSpaceOnUse">
<stop stop-color="#D1DDFF"/>
<stop offset="1" stop-color="#CAD9FF"/>
</linearGradient>
<linearGradient id="paint2_linear" x1="0" y1="0" x2="0" y2="333" gradientUnits="userSpaceOnUse">
<stop stop-color="#E7EEFF"/>
<stop offset="1" stop-color="#DAE4FF"/>
</linearGradient>
<linearGradient id="paint3_linear" x1="171" y1="91" x2="171" y2="594" gradientUnits="userSpaceOnUse">
<stop stop-color="#D1DDFF"/>
<stop offset="1" stop-color="#CAD9FF"/>
</linearGradient>
<linearGradient id="paint4_linear" x1="0" y1="0" x2="0" y2="478" gradientUnits="userSpaceOnUse">
<stop stop-color="#E7EEFF"/>
<stop offset="1" stop-color="#DAE4FF"/>
</linearGradient>
<linearGradient id="paint5_linear" x1="152" y1="141" x2="152" y2="594" gradientUnits="userSpaceOnUse">
<stop stop-color="#D1DDFF"/>
<stop offset="1" stop-color="#CAD9FF"/>
</linearGradient>
<linearGradient id="paint6_linear" x1="127" y1="124" x2="127" y2="594" gradientUnits="userSpaceOnUse">
<stop stop-color="#E7EEFF"/>
<stop offset="1" stop-color="#DAE4FF"/>
</linearGradient>
<linearGradient id="paint7_linear" x1="569" y1="82" x2="569" y2="440" gradientUnits="userSpaceOnUse">
<stop stop-color="#E7EEFF"/>
<stop offset="1" stop-color="#DAE4FF"/>
</linearGradient>
<linearGradient id="paint8_linear" x1="619" y1="82" x2="619" y2="440" gradientUnits="userSpaceOnUse">
<stop stop-color="#D1DDFF"/>
<stop offset="1" stop-color="#CAD9FF"/>
</linearGradient>
<linearGradient id="paint9_linear" x1="28" y1="332" x2="28" y2="690" gradientUnits="userSpaceOnUse">
<stop stop-color="#E7EEFF"/>
<stop offset="1" stop-color="#DAE4FF"/>
</linearGradient>
<linearGradient id="paint10_linear" x1="78" y1="332" x2="78" y2="690" gradientUnits="userSpaceOnUse">
<stop stop-color="#D1DDFF"/>
<stop offset="1" stop-color="#CAD9FF"/>
</linearGradient>
<linearGradient id="paint11_linear" x1="439" y1="127" x2="439" y2="485" gradientUnits="userSpaceOnUse">
<stop stop-color="#E7EEFF"/>
<stop offset="1" stop-color="#DAE4FF"/>
</linearGradient>
<linearGradient id="paint12_linear" x1="489" y1="127" x2="489" y2="485" gradientUnits="userSpaceOnUse">
<stop stop-color="#D1DDFF"/>
<stop offset="1" stop-color="#CAD9FF"/>
</linearGradient>
<linearGradient id="paint13_linear" x1="589" y1="217" x2="589" y2="575" gradientUnits="userSpaceOnUse">
<stop stop-color="#E7EEFF"/>
<stop offset="1" stop-color="#DAE4FF"/>
</linearGradient>
<linearGradient id="paint14_linear" x1="539" y1="217" x2="539" y2="575" gradientUnits="userSpaceOnUse">
<stop stop-color="#D1DDFF"/>
<stop offset="1" stop-color="#CAD9FF"/>
</linearGradient>
<linearGradient id="paint15_linear" x1="664" y1="223" x2="664" y2="440" gradientUnits="userSpaceOnUse">
<stop stop-color="#D1DDFF"/>
<stop offset="1" stop-color="#CAD9FF"/>
</linearGradient>
<linearGradient id="paint16_linear" x1="664" y1="223" x2="664" y2="440" gradientUnits="userSpaceOnUse">
<stop stop-color="#E7EEFF"/>
<stop offset="1" stop-color="#DAE4FF"/>
</linearGradient>
<linearGradient id="paint17_linear" x1="309" y1="55" x2="309" y2="432" gradientUnits="userSpaceOnUse">
<stop stop-color="#D1DDFF"/>
<stop offset="1" stop-color="#CAD9FF"/>
</linearGradient>
<linearGradient id="paint18_linear" x1="309" y1="55" x2="309" y2="432" gradientUnits="userSpaceOnUse">
<stop stop-color="#E7EEFF"/>
<stop offset="1" stop-color="#DAE4FF"/>
</linearGradient>
<linearGradient id="paint19_linear" x1="601.639" y1="123.714" x2="586.449" y2="179.892" gradientUnits="userSpaceOnUse">
<stop stop-color="#5557C8" stop-opacity="0.01"/>
<stop offset="1" stop-color="#5557C8"/>
</linearGradient>
<linearGradient id="paint20_linear" x1="594.177" y1="126.108" x2="594.177" y2="187" gradientUnits="userSpaceOnUse">
<stop stop-color="#D1DDFF"/>
<stop offset="1" stop-color="#A7BFFB"/>
</linearGradient>
<linearGradient id="paint21_linear" x1="588.066" y1="127" x2="588.066" y2="187" gradientUnits="userSpaceOnUse">
<stop stop-color="#F2F6FF"/>
<stop offset="1" stop-color="#DAE4FF"/>
</linearGradient>
<linearGradient id="paint22_linear" x1="16" y1="302.5" x2="16" y2="372.339" gradientUnits="userSpaceOnUse">
<stop stop-color="white"/>
<stop offset="1" stop-color="#F4F6FF"/>
</linearGradient>
<linearGradient id="paint23_linear" x1="61.8077" y1="303.065" x2="69.2764" y2="349.001" gradientUnits="userSpaceOnUse">
<stop stop-color="white"/>
<stop offset="1" stop-color="#DDE6FF"/>
</linearGradient>
<linearGradient id="paint24_linear" x1="49.2778" y1="280" x2="49.2778" y2="349.471" gradientUnits="userSpaceOnUse">
<stop stop-color="#D1DDFF"/>
<stop offset="1" stop-color="#A7BFFB"/>
</linearGradient>
<linearGradient id="paint25_linear" x1="41.2778" y1="279.743" x2="41.2778" y2="349.214" gradientUnits="userSpaceOnUse">
<stop stop-color="#F2F6FF"/>
<stop offset="1" stop-color="#DAE4FF"/>
</linearGradient>
<linearGradient id="paint26_linear" x1="694.219" y1="478.858" x2="713.199" y2="418.383" gradientUnits="userSpaceOnUse">
<stop stop-color="#EDF2FF"/>
<stop offset="1" stop-color="#D9E0F8"/>
</linearGradient>
<linearGradient id="paint27_linear" x1="671.035" y1="466.058" x2="671.035" y2="414.858" gradientUnits="userSpaceOnUse">
<stop stop-color="#EDF2FF"/>
<stop offset="1" stop-color="#EDF2FF"/>
</linearGradient>
<linearGradient id="paint28_linear" x1="252.472" y1="451.234" x2="252.472" y2="491" gradientUnits="userSpaceOnUse">
<stop stop-color="#FBFCFF"/>
<stop offset="1" stop-color="#E2EAFF"/>
</linearGradient>
<linearGradient id="paint29_linear" x1="274.519" y1="450.583" x2="274.507" y2="485.907" gradientUnits="userSpaceOnUse">
<stop stop-color="#D1DDFF"/>
<stop offset="1" stop-color="#7875EB"/>
</linearGradient>
<linearGradient id="paint30_linear" x1="239.472" y1="442.234" x2="239.472" y2="482" gradientUnits="userSpaceOnUse">
<stop stop-color="#FBFCFF"/>
<stop offset="1" stop-color="#E2EAFF"/>
</linearGradient>
<linearGradient id="paint31_linear" x1="302.519" y1="441.749" x2="302.527" y2="477.073" gradientUnits="userSpaceOnUse">
<stop stop-color="#D1DDFF"/>
<stop offset="1" stop-color="#C4D5FF"/>
</linearGradient>
<linearGradient id="paint32_linear" x1="267.472" y1="433.234" x2="267.472" y2="473" gradientUnits="userSpaceOnUse">
<stop stop-color="#FBFCFF"/>
<stop offset="1" stop-color="#E2EAFF"/>
</linearGradient>
<linearGradient id="paint33_linear" x1="567.365" y1="465.979" x2="567.365" y2="505.232" gradientUnits="userSpaceOnUse">
<stop stop-color="#91ACF9" stop-opacity="0.01"/>
<stop offset="1" stop-color="#6893FF"/>
</linearGradient>
<linearGradient id="paint34_linear" x1="403.319" y1="435.449" x2="402.579" y2="505.538" gradientUnits="userSpaceOnUse">
<stop stop-color="#D1DDFF"/>
<stop offset="1" stop-color="#C4D5FF"/>
</linearGradient>
<linearGradient id="paint35_linear" x1="408" y1="444.343" x2="407.697" y2="504.371" gradientUnits="userSpaceOnUse">
<stop stop-color="#F7F9FF"/>
<stop offset="1" stop-color="#EAEEFF"/>
</linearGradient>
<linearGradient id="paint36_linear" x1="274" y1="173" x2="274" y2="473" gradientUnits="userSpaceOnUse">
<stop stop-color="#FBFCFF"/>
<stop offset="1" stop-color="#E2EAFF"/>
</linearGradient>
<linearGradient id="paint37_linear" x1="292" y1="167.459" x2="292" y2="505" gradientUnits="userSpaceOnUse">
<stop stop-color="white"/>
<stop offset="1" stop-color="#FAFBFF" stop-opacity="0.01"/>
</linearGradient>
<linearGradient id="paint38_linear" x1="216" y1="138" x2="216" y2="278" gradientUnits="userSpaceOnUse">
<stop stop-color="white"/>
<stop offset="1" stop-color="#FAFBFF"/>
</linearGradient>
<linearGradient id="paint39_linear" x1="182.39" y1="167.531" x2="179.904" y2="163.261" gradientUnits="userSpaceOnUse">
<stop stop-color="#C94444"/>
<stop offset="1" stop-color="#F65B5B"/>
</linearGradient>
<linearGradient id="paint40_linear" x1="204.766" y1="162.648" x2="230.567" y2="165.42" gradientUnits="userSpaceOnUse">
<stop stop-color="#3509A3"/>
<stop offset="1" stop-color="#5636D8" stop-opacity="0.01"/>
</linearGradient>
<linearGradient id="paint41_linear" x1="205.446" y1="189.419" x2="205.446" y2="302.041" gradientUnits="userSpaceOnUse">
<stop stop-color="#051E44"/>
<stop offset="1" stop-color="#051E44"/>
</linearGradient>
<linearGradient id="paint42_linear" x1="140.322" y1="174.19" x2="192.989" y2="190.113" gradientUnits="userSpaceOnUse">
<stop stop-color="#3509A3"/>
<stop offset="1" stop-color="#5636D8" stop-opacity="0.01"/>
</linearGradient>
</defs>
</svg>
