<?xml version="1.0" encoding="UTF-8"?>
<svg width="673px" height="498px" viewBox="0 0 673 498" version="1.1" xmlns="http://www.w3.org/2000/svg" xmlns:xlink="http://www.w3.org/1999/xlink">
    <!-- Generator: Sketch 63.1 (92452) - https://sketch.com -->
    <title>Illustration_Smart cards</title>
    <desc>Created with Sketch.</desc>
    <defs>
        <linearGradient x1="50%" y1="0%" x2="50%" y2="100%" id="linearGradient-1">
            <stop stop-color="#FBFCFF" offset="0%"></stop>
            <stop stop-color="#E2EAFF" offset="100%"></stop>
        </linearGradient>
        <path d="M143.701551,0 L554.582483,0 C561.651728,1.8241326e-14 567.382483,5.7307552 567.382483,12.8 C567.382483,13.5898746 567.30937,14.3780536 567.164079,15.1544507 L520.66042,263.658381 C512.160592,309.079337 472.507867,342 426.298449,342 L15.4175168,342 C8.34827196,342 2.61751676,336.269245 2.61751676,329.2 C2.61751676,328.410125 2.69062992,327.621946 2.83592061,326.845549 L49.33958,78.3416194 C57.8394081,32.9206631 97.4921327,8.48853245e-15 143.701551,0 Z" id="path-2"></path>
        <linearGradient x1="50%" y1="100%" x2="50%" y2="3.061617e-15%" id="linearGradient-4">
            <stop stop-color="#F8F9FF" stop-opacity="0" offset="0%"></stop>
            <stop stop-color="#757AE9" offset="100%"></stop>
        </linearGradient>
        <circle id="path-5" cx="12" cy="12" r="12"></circle>
        <filter x="-45.8%" y="-37.5%" width="225.0%" height="225.0%" filterUnits="objectBoundingBox" id="filter-6">
            <feOffset dx="4" dy="6" in="SourceAlpha" result="shadowOffsetOuter1"></feOffset>
            <feGaussianBlur stdDeviation="4" in="shadowOffsetOuter1" result="shadowBlurOuter1"></feGaussianBlur>
            <feColorMatrix values="0 0 0 0 0.611764706   0 0 0 0 0.709803922   0 0 0 0 0.968627451  0 0 0 0.24 0" type="matrix" in="shadowBlurOuter1"></feColorMatrix>
        </filter>
        <linearGradient x1="50%" y1="72.2222222%" x2="100%" y2="25.0177032%" id="linearGradient-7">
            <stop stop-color="#EDF2FF" offset="0%"></stop>
            <stop stop-color="#D9E0F8" offset="100%"></stop>
        </linearGradient>
        <linearGradient x1="50%" y1="100%" x2="50%" y2="3.061617e-15%" id="linearGradient-8">
            <stop stop-color="#EDF2FF" offset="0%"></stop>
            <stop stop-color="#EDF2FF" offset="100%"></stop>
        </linearGradient>
        <linearGradient x1="30.2144829%" y1="30.9510936%" x2="79.3781186%" y2="32.9803389%" id="linearGradient-9">
            <stop stop-color="#5778D2" offset="0%"></stop>
            <stop stop-color="#5778D2" stop-opacity="0.5" offset="100%"></stop>
        </linearGradient>
        <filter x="-30.7%" y="-24.7%" width="161.4%" height="149.4%" filterUnits="objectBoundingBox" id="filter-10">
            <feGaussianBlur stdDeviation="14" in="SourceGraphic"></feGaussianBlur>
        </filter>
        <path d="M20,0 L200,0 C211.045695,-2.02906125e-15 220,8.954305 220,20 L220,282 L220,282 L0,282 L0,20 C-1.3527075e-15,8.954305 8.954305,2.02906125e-15 20,0 Z" id="path-11"></path>
        <filter x="-22.7%" y="-17.7%" width="163.6%" height="149.6%" filterUnits="objectBoundingBox" id="filter-12">
            <feOffset dx="20" dy="20" in="SourceAlpha" result="shadowOffsetOuter1"></feOffset>
            <feGaussianBlur stdDeviation="20" in="shadowOffsetOuter1" result="shadowBlurOuter1"></feGaussianBlur>
            <feColorMatrix values="0 0 0 0 0.611764706   0 0 0 0 0.709803922   0 0 0 0 0.968627451  0 0 0 0.4 0" type="matrix" in="shadowBlurOuter1"></feColorMatrix>
        </filter>
        <rect id="path-13" x="0" y="0" width="180" height="120" rx="4"></rect>
        <linearGradient x1="83.176513%" y1="55.8271012%" x2="61.0763189%" y2="25.3170826%" id="linearGradient-15">
            <stop stop-color="#4C50B1" stop-opacity="0" offset="0%"></stop>
            <stop stop-color="#F0F7FF" offset="100%"></stop>
        </linearGradient>
        <linearGradient x1="23.8337058%" y1="17.5206059%" x2="72.9373308%" y2="74.7605149%" id="linearGradient-16">
            <stop stop-color="#4C50B1" stop-opacity="0" offset="0%"></stop>
            <stop stop-color="#F0F7FF" offset="100%"></stop>
        </linearGradient>
        <path d="M1.65350421,0 L19.0646898,0 C19.7073485,0 20.3420097,0.520977761 20.4822455,1.1636364 C20.5003889,1.24678252 20.5095686,1.32968917 20.5096271,1.41093591 L20.5194782,15.0836631 C20.5198632,15.6185215 20.1297414,16 19.5823791,16 L2.17119347,16 C1.52853483,16 0.893873557,15.4790222 0.753637834,14.8363636 C0.735494366,14.7532175 0.726314726,14.6703108 0.726256191,14.5890641 L0.716405119,0.916336888 C0.716020055,0.38147853 1.10614194,0 1.65350421,0 Z" id="path-17"></path>
        <rect id="path-19" x="0" y="0" width="143.999991" height="23.9999986" rx="5.99999964"></rect>
        <filter x="-25.0%" y="-125.0%" width="158.3%" height="450.0%" filterUnits="objectBoundingBox" id="filter-20">
            <feOffset dx="6" dy="12" in="SourceAlpha" result="shadowOffsetOuter1"></feOffset>
            <feGaussianBlur stdDeviation="12" in="shadowOffsetOuter1" result="shadowBlurOuter1"></feGaussianBlur>
            <feColorMatrix values="0 0 0 0 0.611764706   0 0 0 0 0.709803922   0 0 0 0 0.968627451  0 0 0 0.24 0" type="matrix" in="shadowBlurOuter1"></feColorMatrix>
        </filter>
        <rect id="path-21" x="0" y="0" width="191.999989" height="31.9999981" rx="7.99999952"></rect>
        <filter x="-25.0%" y="-125.0%" width="158.3%" height="450.0%" filterUnits="objectBoundingBox" id="filter-22">
            <feOffset dx="8" dy="16" in="SourceAlpha" result="shadowOffsetOuter1"></feOffset>
            <feGaussianBlur stdDeviation="16" in="shadowOffsetOuter1" result="shadowBlurOuter1"></feGaussianBlur>
            <feColorMatrix values="0 0 0 0 0.611764706   0 0 0 0 0.709803922   0 0 0 0 0.968627451  0 0 0 0.24 0" type="matrix" in="shadowBlurOuter1"></feColorMatrix>
        </filter>
        <path d="M535,60 C529.477153,60 525,55.5228475 525,50 L525,10 C525,4.4771525 529.477153,-2.53818305e-15 535,0 L615,0 C620.522847,-1.01453063e-15 625,4.4771525 625,10 L625,50 C625,55.5228475 620.522847,60 615,60 L583,60 L575,68 L567,60 L535,60 Z" id="path-23"></path>
        <filter x="-60.0%" y="-73.5%" width="240.0%" height="305.9%" filterUnits="objectBoundingBox" id="filter-24">
            <feOffset dx="10" dy="20" in="SourceAlpha" result="shadowOffsetOuter1"></feOffset>
            <feGaussianBlur stdDeviation="20" in="shadowOffsetOuter1" result="shadowBlurOuter1"></feGaussianBlur>
            <feColorMatrix values="0 0 0 0 0.611764706   0 0 0 0 0.709803922   0 0 0 0 0.968627451  0 0 0 0.24 0" type="matrix" in="shadowBlurOuter1"></feColorMatrix>
        </filter>
        <path d="M7.0469272,16.8292941 C7.24010714,20.0330235 7.24010714,23.2408294 7.0469272,26.4527119 C6.85374727,29.6645943 5.12926237,32.2738777 1.87347252,34.2805621 C-1.35366216,39.3709968 -0.314462815,42.0472457 4.99107057,42.3093089 C10.296604,42.571372 18.0303778,39.1029535 28.1923921,31.9040534 C25.3098158,30.8618831 23.0223892,27.9537037 21.3301123,23.1795152 C19.6378354,18.4053268 20.1981098,10.8331233 23.0109357,0.462904778 L7.0469272,16.8292941 Z" id="path-25"></path>
        <path d="M24.970429,5.85314842 C21.7090834,5.50187046 16.8514892,5.73047785 11.8928612,8.30173569 C6.93423325,10.8729935 2.42992593,15.3270479 1.69183653,17.8486753 C1.19977693,19.5297603 0.849330041,21.0206506 0.640495854,22.3213464 C-0.71543507,17.1884959 0.415810392,11.8817016 4.03423224,6.4009637 C7.65265409,0.920225775 14.6313863,-0.787076521 24.970429,1.27905681 C30.1649325,0.120714716 34.035582,1.82801701 36.5823774,6.4009637 C39.1291729,10.9739104 39.7271246,15.9734907 38.3762327,21.3997047 C35.5646195,23.0061531 32.9035898,22.1491806 30.3931434,18.8287872 C26.6274739,13.8481971 28.4560842,9.27099191 24.970429,5.85314842 Z" id="path-27"></path>
        <linearGradient x1="0%" y1="50%" x2="100%" y2="45.7626051%" id="linearGradient-29">
            <stop stop-color="#C94444" offset="0%"></stop>
            <stop stop-color="#F65B5B" offset="100%"></stop>
        </linearGradient>
        <path d="M21.6478413,3.89476557 C18.1105187,6.29586447 15.6432174,10.0310566 12.8779463,21.9577564 C11.0344323,29.9088896 7.87814604,43.5126425 3.40908747,62.7690152 C-2.09826934,83.7804367 -0.471093461,92.8568212 8.29061512,89.9981685 C21.433178,85.7101895 25.6074389,44.865461 29.228131,36.1269175 C32.1780409,29.0073076 41.774467,8.0373052 38.2747431,0.754053373 C37.4789382,-0.90209079 22.3031782,3.44992948 21.6478413,3.89476557 Z" id="path-30"></path>
        <linearGradient x1="50.2613961%" y1="18.6140042%" x2="45.8265224%" y2="90.5765428%" id="linearGradient-32">
            <stop stop-color="#3509A3" offset="0%"></stop>
            <stop stop-color="#5636D8" stop-opacity="0" offset="100%"></stop>
        </linearGradient>
        <linearGradient x1="50%" y1="0%" x2="50%" y2="100%" id="linearGradient-33">
            <stop stop-color="#051E44" offset="0%"></stop>
            <stop stop-color="#051E44" offset="100%"></stop>
        </linearGradient>
        <path d="M40.3060358,20.4819962 C34.3511851,63.5234008 30.2846036,91.577135 28.1062914,104.643199 C24.8388231,124.242295 19.9346361,189.51866 19.9346361,193.93198 C19.9346361,198.345301 33.6489779,202.495274 33.3460662,204.264032 C33.0431545,206.03279 23.7599421,210.087992 17.9814234,205.989864 C12.2029047,201.891735 7.16145247,197.776785 7.16145247,195.180343 C7.16145247,192.583902 8.16512909,188.257744 8.16512909,185.908793 C8.16512909,183.559842 3.20541329,137.74999 5.20908991,124.760161 C6.54487432,116.100275 4.80851102,74.5135544 1.56319402e-13,-4.26325641e-14 L40.3060358,20.4819962 Z" id="path-34"></path>
        <linearGradient x1="50%" y1="100%" x2="50.388724%" y2="10.3610263%" id="linearGradient-36">
            <stop stop-color="#FFBE90" stop-opacity="0" offset="0%"></stop>
            <stop stop-color="#ED9276" offset="100%"></stop>
        </linearGradient>
        <path d="M34.9631461,2.84217094e-14 C33.0176384,30.3145273 30.9861169,49.5098322 28.8685813,57.5859148 C25.692278,69.7000388 23.2821813,96.8739026 19.6957006,116.733557 C16.1092199,136.593212 8.6126795,150.829846 6,167.9458 C4.25821367,179.356435 2.25821367,194.927052 8.52651283e-14,214.657649 L10.4750435,217.25337 C22.3552838,174.631435 30.5659074,148.597804 35.1069144,139.152478 C41.9184248,124.984487 64.2535912,68.7984028 67.0796996,47.8323516 C68.9637719,33.8549841 58.258254,17.9108669 34.9631461,2.84217094e-14 Z" id="path-37"></path>
        <path d="M26.3923791,7.16704245 C23.3659819,22.8111791 10.1433244,37.6172161 12.2290982,61.9034774 C13.619614,78.0943183 9.87438462,106.126492 0.993409982,146 C19.0102137,146.737348 31.8457437,146.737348 39.5,146 C47.1542563,145.262652 56.8635622,143.090867 68.6279179,139.484646 C76.1487373,93.4474474 79.3189079,63.0667472 78.1384299,48.3425456 C76.9579519,33.6183441 74.881677,21.4600899 71.9096053,11.8677829 C43.582386,-1.69546848 28.4099773,-3.26238197 26.3923791,7.16704245 Z" id="path-39"></path>
        <path d="M34.0494273,0.514074879 C38.1382646,1.22029535 70.0329495,8.66734469 71.7416493,10.4577692 C73.450349,12.2481938 70.1469974,30.8795136 66.1679753,41.2443855 C58.4970357,61.2262565 54.6553586,75.3215996 55.4666483,90.1973109 C45.2010714,92.9694725 19.6185695,99.6217493 5.05091585,91.3685363 C5.05091585,77.3356818 4.74205497,66.4161166 3.26863441,58.0051312 C-0.237719532,54.013963 0.106734587,48.6622711 0.423901196,45.4021543 C1.32705399,36.1187573 9.757099,8.27591143 14.8864039,6.25470341 C20.0157088,4.23349539 29.9605899,-0.192145592 34.0494273,0.514074879 Z" id="path-41"></path>
        <path d="M26.3084102,0.387126468 C32.34566,12.9044396 35.9077063,27.7221256 36.9945491,44.8401843 C38.6248133,70.5172724 38.2428869,79.5458869 36.9945491,91.1910084 C36.1623239,98.9544227 34.1543285,106.793427 30.9705629,114.708022 C25.1697117,115.362628 19.8566394,115.362628 15.0313458,114.708022 C10.2060523,114.053416 7.50455679,112.892875 6.92685927,111.226399 C13.17258,101.634307 16.2954404,92.2275907 16.2954404,83.0062497 C16.2954404,69.1742382 7.9884767,44.7073778 4.21583041,32.5853865 C1.70073288,24.504059 0.561173355,16.2005152 0.797151836,7.67475517 C1.99331683,6.78453177 4.03655264,6.02566634 6.92685927,5.39815888 C15.9737564,3.43400899 22.4342733,1.76366485 26.3084102,0.387126468 Z" id="path-43"></path>
        <linearGradient x1="52.069598%" y1="18.6140042%" x2="16.9565744%" y2="90.5765428%" id="linearGradient-45">
            <stop stop-color="#3509A3" offset="0%"></stop>
            <stop stop-color="#5636D8" stop-opacity="0" offset="100%"></stop>
        </linearGradient>
        <linearGradient x1="50%" y1="0%" x2="50%" y2="100%" id="linearGradient-46">
            <stop stop-color="#FFFFFF" offset="0%"></stop>
            <stop stop-color="#FAFBFF" offset="100%"></stop>
        </linearGradient>
        <path d="M1.65350421,0 L19.0646898,0 C19.7073485,0 20.3420097,0.520977761 20.4822455,1.1636364 C20.5003889,1.24678252 20.5095686,1.32968917 20.5096271,1.41093591 L20.5194782,15.0836631 C20.5198632,15.6185215 20.1297414,16 19.5823791,16 L2.17119347,16 C1.52853483,16 0.893873557,15.4790222 0.753637834,14.8363636 C0.735494366,14.7532175 0.726314726,14.6703108 0.726256191,14.5890641 L0.716405119,0.916336888 C0.716020055,0.38147853 1.10614194,0 1.65350421,0 Z" id="path-47"></path>
        <path d="M4.41677167,23.7994276 C5.3197326,23.6402112 12.9686723,20.780999 13.7152448,20.12453 C14.4618172,19.4680611 15.7883998,15.9459597 15.5783037,14.7544452 C15.3682075,13.5629307 14.0798584,11.9771597 13.7888001,10.326486 C13.5947612,9.22603695 13.628784,5.78387494 13.8908684,-2.45137244e-13 C6.66886138,0.626562343 3.12495774,2.3936654 3.25915748,5.30130918 C3.37051186,7.71397301 3.19457089,9.37495369 2.80347319,11.1228577 C2.48756846,12.5347073 1.00684095,14.392393 0.717221919,14.8971763 C0.0690475111,16.0268935 -0.127077716,21.3689995 0.0775025639,22.5292319 C0.226459234,23.3740072 1.65144576,23.5863351 2.62497025,22.0800446 C3.10713385,22.1093925 3.59917051,23.9435927 4.41677167,23.7994276 Z" id="path-49"></path>
        <rect id="path-51" x="0" y="0" width="240" height="160" rx="10"></rect>
        <filter x="-25.0%" y="-31.2%" width="158.3%" height="187.5%" filterUnits="objectBoundingBox" id="filter-52">
            <feOffset dx="10" dy="20" in="SourceAlpha" result="shadowOffsetOuter1"></feOffset>
            <feGaussianBlur stdDeviation="20" in="shadowOffsetOuter1" result="shadowBlurOuter1"></feGaussianBlur>
            <feColorMatrix values="0 0 0 0 0.611764706   0 0 0 0 0.709803922   0 0 0 0 0.968627451  0 0 0 0.24 0" type="matrix" in="shadowBlurOuter1"></feColorMatrix>
        </filter>
        <rect id="path-53" x="0" y="0" width="240" height="40" rx="10"></rect>
        <filter x="-25.0%" y="-125.0%" width="158.3%" height="450.0%" filterUnits="objectBoundingBox" id="filter-54">
            <feOffset dx="10" dy="20" in="SourceAlpha" result="shadowOffsetOuter1"></feOffset>
            <feGaussianBlur stdDeviation="20" in="shadowOffsetOuter1" result="shadowBlurOuter1"></feGaussianBlur>
            <feColorMatrix values="0 0 0 0 0.611764706   0 0 0 0 0.709803922   0 0 0 0 0.968627451  0 0 0 0.24 0" type="matrix" in="shadowBlurOuter1"></feColorMatrix>
        </filter>
    </defs>
    <g id="Page-1" stroke="none" stroke-width="1" fill="none" fill-rule="evenodd">
        <g id="Finance-Saas-Landingpage" transform="translate(-664.000000, -2249.000000)">
            <g id="Smart-Cards" transform="translate(135.000000, 2269.000000)">
                <g id="Illustration_Smart-cards" transform="translate(527.000000, 0.000000)">
                    <path d="M224.576944,234.4 L79.7955772,234.4 C65.4553681,234.4 52.1319406,239.506804 41.7328813,248.137257 C31.3338221,256.76771 23.859131,268.921811 21.2163949,283.016403 L3.23544136,378.914822 C3.09415588,379.668345 3.02305648,380.433346 3.02305648,381.2 C3.02305648,384.624165 4.41097375,387.724165 6.65493239,389.968124 C8.89889103,392.212083 11.998891,393.6 15.4230565,393.6 L160.204423,393.6 C174.544632,393.6 187.868059,388.493196 198.267119,379.862743 C208.666178,371.23229 216.140869,359.078189 218.783605,344.983597 L236.764559,249.085178 C236.905844,248.331655 236.976944,247.566654 236.976944,246.8 C236.976944,243.375835 235.589026,240.275835 233.345068,238.031876 C231.101109,235.787917 228.001109,234.4 224.576944,234.4 Z" id="asset" stroke="#D5DFFA" stroke-width="0.8" fill-rule="nonzero"></path>
                    <g id="Group-31" transform="translate(73.000000, 10.000000)">
                        <mask id="mask-3" fill="white">
                            <use xlink:href="#path-2"></use>
                        </mask>
                        <use id="Rectangle-Copy-72" fill="url(#linearGradient-1)" fill-rule="nonzero" xlink:href="#path-2"></use>
                        <path d="M114.999997,336.457968 C203.319086,238.819323 259.985753,195.333333 284.999997,206 C322.521369,222 354.80862,220.434066 382.798686,186.467033 C410.788752,152.5 454.189871,83.6123481 498.701309,81.8061741 C543.212747,80 574.693735,121.714234 600.432066,74.6737024 C626.170397,27.6331707 620.351184,442.193388 615.327279,437.885238 C611.978008,435.013139 445.202247,401.204048 114.999997,336.457968 Z" id="Path-70" fill="#757AE9" opacity="0.100000001" mask="url(#mask-3)"></path>
                        <path d="M533.000609,87.5614876 L533,346 L471,346 L470.99846,90.8391022 C480.09628,85.5084264 489.374419,82.1846383 498.701309,81.8061741 C511.091696,81.3034 522.472398,84.1728736 533.000609,87.5614876 Z" id="Combined-Shape" fill="url(#linearGradient-4)" opacity="0.100000001" mask="url(#mask-3)"></path>
                        <rect id="Rectangle" fill="#FFFFFF" mask="url(#mask-3)" x="501" y="82" width="2" height="274"></rect>
                        <rect id="Rectangle-Copy-112" fill="#FFFFFF" mask="url(#mask-3)" x="441" y="114" width="1" height="274" rx="0.5"></rect>
                        <rect id="Rectangle-Copy-113" fill="#FFFFFF" mask="url(#mask-3)" x="381" y="114" width="1" height="274" rx="0.5"></rect>
                        <rect id="Rectangle-Copy-114" fill="#FFFFFF" mask="url(#mask-3)" x="321" y="215" width="1" height="274" rx="0.5"></rect>
                        <g id="Group-45" mask="url(#mask-3)" fill-rule="nonzero">
                            <g transform="translate(490.000000, 70.000000)">
                                <g id="Oval" fill="none">
                                    <use fill="black" fill-opacity="1" filter="url(#filter-6)" xlink:href="#path-5"></use>
                                    <use fill="#FFFFFF" xlink:href="#path-5"></use>
                                </g>
                                <circle id="Oval-Copy-5" fill="#19CEAF" cx="12" cy="12" r="5"></circle>
                            </g>
                        </g>
                        <g id="Group-29" mask="url(#mask-3)">
                            <g transform="translate(378.000000, 216.000000)">
                                <g id="Group-26" stroke="none" stroke-width="1" fill="none" fill-rule="evenodd" transform="translate(0.000000, 5.000000)">
                                    <path d="M83.0996975,36.0320934 C83.0996975,28.860559 62.4879743,20.6184955 49.1043418,11.2867143 C35.7207092,1.9549331 18.8997154,-4.2460557 6.08725428,3.5203293 C-6.72520686,11.2867143 0.320536681,22.2838751 30.7215408,36.0320934 C61.1225448,49.7803117 83.0996975,43.2036278 83.0996975,36.0320934 Z" id="Path-43" fill="#F6F8FF"></path>
                                    <path d="M85.4347876,105.217968 C85.2751349,65.6626561 84.4967715,42.6006978 83.0996975,36.0320934 C81.7026235,29.463489 55.8422325,19.9804128 5.51852475,7.58286486" id="Path-42" stroke="#CAD1EE" stroke-width="1.27999992"></path>
                                </g>
                                <g id="Group-27" stroke="none" stroke-width="1" fill="none" fill-rule="evenodd" transform="translate(91.831578, 0.582899)">
                                    <path d="M5.86973077,23.8237379 C7.38732347,15.0550254 14.9321965,8.30025662 28.5043498,3.55943166 C48.8625799,-3.55180577 76.4933376,0.0761726437 73.4039525,13.6915848 C70.3145673,27.3069969 43.7795869,35.9419243 28.5043498,35.9419243 C18.3208585,35.9419243 10.7759854,31.9025289 5.86973077,23.8237379 Z" id="Path-45" fill="#E9EDFA"></path>
                                    <path d="M5.86973077,23.8237379 C7.38732347,15.0550254 14.9321965,8.30025662 28.5043498,3.55943166 C48.8625799,-3.55180577 76.4933376,0.0761726437 73.4039525,13.6915848 C70.3145673,27.3069969 43.7795869,35.9419243 28.5043498,35.9419243 C18.3208585,35.9419243 10.7759854,31.9025289 5.86973077,23.8237379 Z" id="Path-45-Copy" fill="#EDF2FF"></path>
                                    <path d="M-4.41104904e-13,109.63507 C3.29507483,89.8216699 4.94261225,71.0483377 4.94261225,53.3150731 C4.94261225,26.7151762 3.66504697,25.8234053 8.94598678,19.8809594 C14.2269266,13.9385134 50.2302761,4.34588109 69.2036812,9.43115321" id="Path-44" stroke="#CAD1EE" stroke-width="1.27999992" stroke-linecap="round" stroke-linejoin="round"></path>
                                </g>
                                <g id="Group-25" stroke="none" stroke-width="1" fill="none" fill-rule="evenodd" transform="translate(23.637029, 54.748569)">
                                    <path d="M38.7327138,19.1494028 C30.7577606,15.8339156 24.25623,14.7374346 11.6310632,13.1946412 C6.72088817,12.5946185 2.05789699,12.7916926 0.694790286,15.6078006 C-1.44695754,20.0325408 1.82813766,29.0232288 4.22579479,37.0254615 C8.14943106,50.1206825 23.9657627,34.8303006 27.6817616,24.6491268 C31.3977606,14.4679529 41.1781864,-2.07830886 42.6206497,3.91510096 C44.0631131,9.90851078 41.4790892,10.1108126 38.7327138,19.1494028 Z" id="Path-47" fill="#B8C8F7"></path>
                                    <path d="M38.7327138,19.1494028 C30.7577606,15.8339156 24.25623,14.7374346 11.6310632,13.1946412 C6.72088817,12.5946185 2.05789699,12.7916926 0.694790286,15.6078006 C1.89504558,12.387547 10.5580592,4.61871436 20.1758214,2.64136682 C33.4748715,-0.0928288748 41.1781864,-2.07830886 42.6206497,3.91510096 C44.0631131,9.90851078 41.4790892,10.1108126 38.7327138,19.1494028 Z" id="Path-47-Copy" fill="#EDF2FF"></path>
                                    <path d="M47.0809149,52.9093996 C43.6761675,34.2138659 40.3981625,21.3731334 37.2469001,14.3872022 C34.0956376,7.40127093 27.9582975,3.9105632 18.8348798,3.915079" id="Path-46" stroke="#CAD1EE" stroke-width="1.27999992"></path>
                                </g>
                                <g id="Group-28" stroke="none" stroke-width="1" fill="none" fill-rule="evenodd" transform="translate(97.701309, 57.525613)">
                                    <path d="M12.6816822,1.4151594 C18.1083452,-3.62764182 63.7445431,5.83011491 75.82476,13.7029532 C87.9049768,21.5757915 87.9519506,40.7108295 56.4429107,35.0500939 C24.9338708,29.3893582 7.25501918,6.45796062 12.6816822,1.4151594 Z" id="Path-49" fill="#EDF2FF"></path>
                                    <path d="M0,51.5737095 C4.97468145,20.9558248 8.90387762,4.3886157 11.7875885,1.87208215 C16.1131549,-1.90271817 44.8443739,18.8234479 60.9086021,23.2055419 C71.6180876,26.126938 78.8374497,27.2232355 82.5666882,26.4944345" id="Path-48" stroke="#B8C0E4" stroke-width="1.27999992"></path>
                                </g>
                                <path d="M47.0347899,94.8579692 L123.834785,94.8579692 L123.834785,123.017968 C123.834785,135.742607 113.519427,146.057966 100.794787,146.057966 L70.0747886,146.057966 C57.3501487,146.057966 47.0347899,135.742607 47.0347899,123.017968 L47.0347899,94.8579692 L47.0347899,94.8579692 Z" id="Rectangle" stroke="none" fill="url(#linearGradient-7)" fill-rule="evenodd"></path>
                                <path d="M47.0347899,94.8579692 L103.03479,94.8579692 L103.03479,123.017968 C103.03479,135.742607 92.7194312,146.057966 79.9947913,146.057966 L70.0747886,146.057966 C57.3501487,146.057966 47.0347899,135.742607 47.0347899,123.017968 L47.0347899,94.8579692 L47.0347899,94.8579692 Z" id="Rectangle-Copy-10" stroke="none" fill="url(#linearGradient-8)" fill-rule="evenodd" opacity="0.800000012"></path>
                                <line x1="47.0347899" y1="104.857969" x2="123.834785" y2="104.857969" id="Path" stroke="#FFFFFF" stroke-width="1.27999992" fill="none"></line>
                            </g>
                        </g>
                        <polygon id="Path-87" fill="url(#linearGradient-9)" opacity="0.319999993" filter="url(#filter-10)" mask="url(#mask-3)" points="453 356.498168 449.730079 333.467033 459.965746 328.967033 454.420117 276.910227 508.900514 276.910227 508.900514 193.173081 372.026258 186.467033 381.273218 356.498168"></polygon>
                        <g id="Group-32" mask="url(#mask-3)">
                            <g transform="translate(80.000000, 60.000000)">
                                <g id="Rectangle" fill="none" fill-rule="nonzero">
                                    <use fill="black" fill-opacity="1" filter="url(#filter-12)" xlink:href="#path-11"></use>
                                    <use fill="#FFFFFF" xlink:href="#path-11"></use>
                                </g>
                                <path d="M47.8777224,18.8511584 C50.8427965,23.3162112 55.8466411,26 61.2065256,26 L61.2065256,26 L158.793474,26 C164.153359,26 169.157203,23.3162112 172.122278,18.8511584 L172.122278,18.8511584 L178,10 L200,10 C205.522847,10 210,14.4771525 210,20 L210,282 L10,282 L10,20 C10,14.4771525 14.4771525,10 20,10 L42,10 Z" id="Combined-Shape" fill="#F3F6FF" fill-rule="nonzero"></path>
                                <g id="Group-63" stroke-width="1" fill="none" fill-rule="evenodd" transform="translate(14.000000, 40.000000)">
                                    <g id="Rectangle-3">
                                        <mask id="mask-14" fill="white">
                                            <use xlink:href="#path-13"></use>
                                        </mask>
                                        <rect stroke="#FFFFFF" x="-0.5" y="-0.5" width="181" height="121" rx="4"></rect>
                                        <path d="M89.0872274,18 L165,18 L165,18 L145.73533,95.6337457 C141.308452,113.473402 125.293485,126 106.912773,126 L31,126 L31,126 L50.2646702,48.3662543 C54.6915479,30.5265981 70.7065152,18 89.0872274,18 Z" id="Rectangle-Copy-100" fill="url(#linearGradient-15)" opacity="0.100000001" mask="url(#mask-14)"></path>
                                        <path d="M123.087227,79 L199,79 L199,79 L179.73533,156.633746 C175.308452,174.473402 159.293485,187 140.912773,187 L65,187 L65,187 L84.2646702,109.366254 C88.6915479,91.5265981 104.706515,79 123.087227,79 Z" id="Rectangle-Copy-99" fill="url(#linearGradient-15)" opacity="0.100000001" mask="url(#mask-14)"></path>
                                        <path d="M112.087227,-67 L188,-67 L188,-67 L168.73533,10.6337457 C164.308452,28.4734019 148.293485,41 129.912773,41 L54,41 L54,41 L73.2646702,-36.6337457 C77.6915479,-54.4734019 93.7065152,-67 112.087227,-67 Z" id="Rectangle-Copy-101" fill="url(#linearGradient-16)" opacity="0.100000001" mask="url(#mask-14)"></path>
                                    </g>
                                    <g id="Rectangle-Copy-65" transform="translate(24.000000, 20.000000)">
                                        <mask id="mask-18" fill="white">
                                            <use xlink:href="#path-17"></use>
                                        </mask>
                                        <use id="Rectangle-Copy-62" fill="#D1DDFF" fill-rule="nonzero" xlink:href="#path-17"></use>
                                        <path d="M23.2682787,6.18181818 L15.3184378,6.18181818 C14.9838761,6.18181818 14.6962718,6.29645016 14.4992604,6.50119078 C14.3038611,6.70425603 14.2027956,6.99132224 14.2196722,7.31873754 L14.2950653,8.30956364 C14.3918087,8.72387985 14.6469162,9.09620046 14.9782905,9.36821743 C15.3131453,9.64309147 15.7288413,9.81818182 16.1494228,9.81818182 L24.0992637,9.81818182 C24.4338254,9.81818182 24.7214297,9.70354984 24.9184411,9.49880922 C25.1138403,9.29574397 25.2149059,9.00867776 25.1980292,8.68126246 L25.1226362,7.69043636 C25.0258928,7.27612015 24.7707852,6.90379954 24.4394109,6.63178257 C24.1045561,6.35690853 23.6888602,6.18181818 23.2682787,6.18181818 Z" id="Rectangle" stroke="#FEFEFF" stroke-width="0.727272727" fill-rule="nonzero" mask="url(#mask-18)"></path>
                                        <path d="M5.08646051,6.18181818 L-2.86338038,6.18181818 C-3.19794207,6.18181818 -3.48554642,6.29645016 -3.6825578,6.50119078 C-3.87795705,6.70425603 -3.97902261,6.99132224 -3.96214593,7.31873754 L-3.88675291,8.30956364 C-3.79000949,8.72387985 -3.53490195,9.09620046 -3.20352765,9.36821743 C-2.86867284,9.64309147 -2.4529769,9.81818182 -2.03239539,9.81818182 L5.9174455,9.81818182 C6.25200719,9.81818182 6.53961154,9.70354984 6.73662292,9.49880922 C6.93202217,9.29574397 7.03308773,9.00867776 7.01621105,8.68126246 L6.94081803,7.69043636 C6.84407461,7.27612015 6.58896707,6.90379954 6.25759277,6.63178257 C5.92273796,6.35690853 5.50704201,6.18181818 5.08646051,6.18181818 Z" id="Rectangle-Copy-66" stroke="#FEFEFF" stroke-width="0.727272727" fill-rule="nonzero" mask="url(#mask-18)"></path>
                                        <path d="M5.74750837,2.54545455 L-2.20233253,2.54545455 C-2.53689421,2.54545455 -2.82449857,2.66008652 -3.02150994,2.86482714 C-3.21690919,3.06789239 -3.31797475,3.3549586 -3.30109807,3.6823739 L-3.22570506,4.6732 C-3.12896163,5.08751621 -2.87385409,5.45983682 -2.54247979,5.7318538 C-2.20762499,6.00672783 -1.79192904,6.18181818 -1.37134753,6.18181818 L6.57849336,6.18181818 C6.91305505,6.18181818 7.2006594,6.06718621 7.39767077,5.86244559 C7.59307003,5.65938034 7.69413559,5.37231412 7.67725891,5.04489883 L7.60186589,4.05407272 C7.50512247,3.63975651 7.25001492,3.26743591 6.91864062,2.99541893 C6.58378582,2.7205449 6.16808987,2.54545455 5.74750837,2.54545455 Z" id="Rectangle-Copy-67" stroke="#FEFEFF" stroke-width="0.727272727" fill-rule="nonzero" mask="url(#mask-18)"></path>
                                        <path d="M6.69343701,9.45454545 C5.85410487,11.8797314 7.08127587,13.215603 10.37495,13.4621602 C13.6686241,13.7087175 15.0187459,12.132251 14.4253155,8.73276096" id="Path-15" stroke="#FEFEFF" stroke-width="0.727272727" fill-rule="nonzero" mask="url(#mask-18)"></path>
                                        <line x1="13.8254896" y1="12.7006146" x2="23.2776131" y2="12.7539309" id="Path-19" stroke="#FEFEFF" stroke-width="0.727272727" stroke-linecap="round" stroke-linejoin="round" fill-rule="nonzero" mask="url(#mask-18)"></line>
                                        <line x1="-2.17451041" y1="12.7006146" x2="7.27761307" y2="12.7539309" id="Path-19-Copy" stroke="#FEFEFF" stroke-width="0.727272727" stroke-linecap="round" stroke-linejoin="round" fill-rule="nonzero" mask="url(#mask-18)"></line>
                                    </g>
                                    <g id="Group-56" transform="translate(132.000000, 84.000000)" fill-rule="nonzero" opacity="0.340000004">
                                        <circle id="Oval-Copy-32" fill="#FEFEFF" cx="16" cy="8" r="8"></circle>
                                        <circle id="Oval" fill="#19CEAF" cx="8" cy="8" r="8"></circle>
                                    </g>
                                    <rect id="Rectangle" fill="#D1DDFF" fill-rule="nonzero" opacity="0.5" x="24" y="54" width="132" height="12" rx="2"></rect>
                                    <rect id="Rectangle-Copy-80" fill="#D1DDFF" fill-rule="nonzero" opacity="0.5" x="24" y="87" width="44" height="10" rx="2"></rect>
                                </g>
                            </g>
                        </g>
                        <g id="Group-43" mask="url(#mask-3)">
                            <g transform="translate(59.000000, 260.000000)">
                                <g id="Group-41-Copy-2" opacity="0.600000024" transform="translate(59.000000, 42.000000)">
                                    <g id="Rectangle" fill-rule="nonzero">
                                        <use fill="black" fill-opacity="1" filter="url(#filter-20)" xlink:href="#path-19"></use>
                                        <use fill="#FFFFFF" xlink:href="#path-19"></use>
                                    </g>
                                    <rect id="Rectangle" fill="#D1DDFF" fill-rule="nonzero" opacity="0.5" x="11.9999993" y="7.19999957" width="47.9999971" height="4.79999971"></rect>
                                    <rect id="Rectangle-Copy-85" fill="#D1DDFF" fill-rule="nonzero" opacity="0.5" x="107.999994" y="7.19999957" width="23.9999986" height="2.39999986"></rect>
                                    <rect id="Rectangle-Copy-86" fill="#19CEAF" fill-rule="nonzero" opacity="0.5" x="113.999993" y="11.9999993" width="17.9999989" height="4.79999971"></rect>
                                    <rect id="Rectangle-Copy-84" fill="#D1DDFF" fill-rule="nonzero" opacity="0.5" x="11.9999993" y="14.3999991" width="29.9999982" height="2.39999986"></rect>
                                </g>
                                <g id="Group-41-Copy" opacity="0.800000012">
                                    <g id="Rectangle" fill-rule="nonzero">
                                        <use fill="black" fill-opacity="1" filter="url(#filter-22)" xlink:href="#path-21"></use>
                                        <use fill="#FFFFFF" xlink:href="#path-21"></use>
                                    </g>
                                    <rect id="Rectangle" fill="#D1DDFF" fill-rule="nonzero" opacity="0.5" x="15.999999" y="9.59999943" width="63.9999962" height="6.39999962"></rect>
                                    <rect id="Rectangle-Copy-85" fill="#D1DDFF" fill-rule="nonzero" opacity="0.5" x="143.999991" y="9.59999943" width="31.9999981" height="3.19999981"></rect>
                                    <rect id="Rectangle-Copy-86" fill="#757AE9" fill-rule="nonzero" opacity="0.5" x="151.999991" y="15.999999" width="23.9999986" height="6.39999962"></rect>
                                    <rect id="Rectangle-Copy-84" fill="#D1DDFF" fill-rule="nonzero" opacity="0.5" x="15.999999" y="19.1999989" width="39.9999976" height="3.19999981"></rect>
                                </g>
                            </g>
                        </g>
                    </g>
                    <ellipse id="Oval" fill="#E5ECFF" fill-rule="nonzero" opacity="0.600000024" cx="485" cy="466.5" rx="78" ry="11.5"></ellipse>
                    <g id="Group-27" transform="translate(544.831578, 226.582899)">
                        <path d="M3.86973077,23.8237379 C5.38732347,15.0550254 12.9321965,8.30025662 26.5043498,3.55943166 C46.8625799,-3.55180577 74.4933376,0.0761726437 71.4039525,13.6915848 C68.3145673,27.3069969 41.7795869,35.9419243 26.5043498,35.9419243 C16.3208585,35.9419243 8.77598543,31.9025289 3.86973077,23.8237379 Z" id="Path-45" fill="#E9EDFA"></path>
                        <path d="M3.86973077,23.8237379 C5.38732347,15.0550254 12.9321965,8.30025662 26.5043498,3.55943166 C46.8625799,-3.55180577 74.4933376,0.0761726437 71.4039525,13.6915848 C68.3145673,27.3069969 41.7795869,35.9419243 26.5043498,35.9419243 C16.3208585,35.9419243 8.77598543,31.9025289 3.86973077,23.8237379 Z" id="Path-45-Copy" fill="#EDF2FF"></path>
                        <path d="M0.618004201,91.2669104 C2.1677429,78.1271337 2.94261225,65.4765212 2.94261225,53.3150731 C2.94261225,26.7151762 1.66504697,25.8234053 6.94598678,19.8809594 C12.2269266,13.9385134 48.2302761,4.34588109 67.2036812,9.43115321" id="Path-44" stroke="#CAD1EE" stroke-width="1.27999992" stroke-linecap="round" stroke-linejoin="round"></path>
                    </g>
                    <g id="Group-28" transform="translate(551.701309, 283.525613)">
                        <path d="M9.6816822,1.4151594 C15.1083452,-3.62764182 60.7445431,5.83011491 72.82476,13.7029532 C84.9049768,21.5757915 84.9519506,40.7108295 53.4429107,35.0500939 C21.9338708,29.3893582 4.25501918,6.45796062 9.6816822,1.4151594 Z" id="Path-49" fill="#EDF2FF"></path>
                        <path d="M0.695448165,30.3981349 C3.96217034,13.2378455 6.65955045,3.72916123 8.78758852,1.87208215 C13.1131549,-1.90271817 41.8443739,18.8234479 57.9086021,23.2055419 C68.6180876,26.126938 75.8374497,27.2232355 79.5666882,26.4944345" id="Path-48" stroke="#B8C0E4" stroke-width="1.27999992"></path>
                    </g>
                    <g id="Combined-Shape" fill-rule="nonzero">
                        <use fill="black" fill-opacity="1" filter="url(#filter-24)" xlink:href="#path-23"></use>
                        <use fill="#FFFFFF" xlink:href="#path-23"></use>
                    </g>
                    <g id="Group-46" transform="translate(547.000000, 30.000000)">
                        <polygon id="Rectangle" fill="#19CEAF" transform="translate(4.000000, 4.000000) scale(1, -1) translate(-4.000000, -4.000000) " points="0 2 8 2 4 6"></polygon>
                        <rect id="Rectangle-Copy-89" fill="#D1DDFF" fill-rule="nonzero" opacity="0.5" x="16" y="0" width="30" height="6"></rect>
                        <rect id="Rectangle-Copy-90" fill="#E8EEFF" fill-rule="nonzero" x="16" y="10" width="40" height="2"></rect>
                    </g>
                    <rect id="Rectangle" fill="#19CEAF" fill-rule="nonzero" opacity="0.400000006" x="555" y="16" width="40" height="4"></rect>
                    <g id="Group-3-Copy-15" transform="translate(408.000000, 40.000000)">
                        <g id="Group-37" transform="translate(0.570199, 0.000000)">
                            <g id="Group-Copy" transform="translate(9.058824, 0.000000)">
                                <path d="M43.0242109,4.7260223 C40.8568445,1.59301378 36.5929526,0.0265095242 30.2325351,0.0265095242 C20.691909,0.0265095242 1.76305756,22.9052936 2.44552576,32.4492698 C3.12799397,41.9932461 11.8022827,43.7021151 11.1879304,48.6592984 C10.573578,53.6164818 1.33962599,62.7331595 2.44552576,70.5237159 C3.55142553,78.3142723 9.06571046,78.0281449 8.18952867,83.4798215 C7.31334688,88.9314982 4.51598226,97.3889006 8.96649213,102.805775 C13.417002,108.22265 75.4758475,89.2854013 75.4758475,76.3203907 C75.4758475,63.3553801 64.1442963,61.5640133 64.6946157,50.9785742 C65.2449351,40.393135 67.6268406,38.0904784 66.1607282,28.9520735 C64.6946157,19.8136685 57.0128918,8.01287819 51.8131293,5.13547871 C48.3466209,3.21721238 45.4169815,3.08072692 43.0242109,4.7260223 Z" id="Path-5" fill="#051E44"></path>
                                <path d="M3.87557356,86.8259442 C-1.11108854,76.766661 -0.6621666,67.9843536 5.22233938,60.479022 C11.1068454,52.9736904 13.3743872,48.0875676 12.024965,45.8206537" id="Path-162" stroke="#1D4A8F" stroke-width="0.639999962" stroke-linecap="round" stroke-linejoin="round"></path>
                                <path d="M40.168513,11.9439678 C38.4805823,8.28674132 35.6264242,6.93650794 31.6060388,7.89326765 C25.5754607,9.32840722 20.2788988,16.3759753 16.7374971,23.5395643 C11.1014984,34.9401288 22.0731683,43.7160234 21.1845785,47.3596059 C20.2959887,51.0031884 12.6005777,64.5418013 24.6941822,67.4805399" id="Path-160" stroke="#051E44" stroke-width="0.639999962" stroke-linecap="round" stroke-linejoin="round"></path>
                                <g id="Group-2" transform="translate(26.523762, 38.806174)">
                                    <mask id="mask-26" fill="white">
                                        <use xlink:href="#path-25"></use>
                                    </mask>
                                    <use id="Path-9" fill="#FFBE90" xlink:href="#path-25"></use>
                                    <path d="M-9.65603411,-11.7214144 C-9.96062641,-5.91415165 -9.73092006,-0.387292512 -8.96691508,4.859163 C-7.8209076,12.7288463 -1.14629753,21.4933814 3.40996568,22.323062 C7.9662289,23.1527426 16.3943467,19.6236463 19.1070966,10.8886221 C21.8198465,2.15359798 20.5733099,-5.28739202 20.5733099,-10.450963 C20.5733099,-15.614534 19.6716603,-28.5817271 7.29326503,-28.5817271 C-0.958998508,-28.5817271 -6.60876489,-22.9616228 -9.65603411,-11.7214144 Z" id="Path-2" fill="#ED9276" mask="url(#mask-26)"></path>
                                </g>
                                <path d="M16.8677283,23.4682079 C16.563136,29.2754707 16.7928424,34.8023298 17.5568473,40.0487853 C18.7028548,47.9184686 25.3774649,56.6830037 29.9337281,57.5126843 C34.4899913,58.3423649 43.1213965,53.85457 47.1975483,46.0996884 C48.5637783,43.5004348 49.5406118,41.0117735 49.7539339,38.208079 C50.1810892,32.5939705 52.6903066,28.1929669 52.6903066,24.7601033 C52.6903066,19.5965323 46.1954228,6.60789528 33.8170275,6.60789528 C25.5647639,6.60789528 19.9149975,12.2279995 16.8677283,23.4682079 Z" id="Path-2" fill="#FFBE90"></path>
                                <path d="M33.7284942,57.2381803 C38.3115349,56.0413062 44.0837,52.0237869 47.1975483,46.0996884 C47.4280015,45.661251 47.6473754,45.2259602 47.8538747,44.7917733" id="Path-2-Copy" stroke="#E07144" stroke-width="0.575999959" stroke-linecap="round" stroke-linejoin="round"></path>
                                <g id="Group-9" transform="translate(15.090067, 6.257209)">
                                    <mask id="mask-28" fill="white">
                                        <use xlink:href="#path-27"></use>
                                    </mask>
                                    <use id="Path-3" fill="#000E24" xlink:href="#path-27"></use>
                                    <path d="M21.4096845,6.20995766 C18.1161383,2.8040827 13.5531646,3.00897703 7.72076335,6.82464065" id="Path-40" stroke="#051E44" stroke-width="0.639999962" stroke-linecap="round" stroke-linejoin="round" mask="url(#mask-28)"></path>
                                    <path d="M15.3385218,7.43377675 C12.2349882,6.56128204 8.14867951,8.70827875 3.07959564,13.8747669" id="Path-41" stroke="#051E44" stroke-width="0.639999962" stroke-linecap="round" stroke-linejoin="round" mask="url(#mask-28)"></path>
                                </g>
                                <path d="M40.0604964,12.110357 C38.6942492,6.60664351 30.712729,6.60664351 26.7052835,10.1558197 C22.6978379,13.7049958 17.5199934,21.5842565 16.781904,24.1058839 C16.2898444,25.7869688 15.9389742,28.6262644 15.7292936,32.6237708 C13.7250426,24.4288995 14.5321281,17.5910949 18.1505499,12.110357 C21.7689718,6.62961904 29.0722872,4.46459554 40.0604964,5.61528648 C45.8093815,5.37238678 49.9572218,7.53741027 52.5040172,12.110357 C55.0508127,16.6833037 55.3715737,21.8654891 53.4663001,27.6569133 C50.6546869,29.2633616 47.9936572,28.4063891 45.4832108,25.0859957 C41.7175413,20.1054056 43.5461517,15.5282004 40.0604964,12.110357 Z" id="Path-3-Copy" fill="#051E44"></path>
                                <path d="M40.168513,11.9439678 C38.4805823,8.28674132 35.6264242,6.93650794 31.6060388,7.89326765 C25.5754607,9.32840722 20.2788988,16.3759753 16.7374971,23.5395643 C15.0826116,26.8870862 14.8595935,30.0083164 15.3477552,32.8397717" id="Path-160" stroke="#1D4A8F" stroke-width="0.639999962" stroke-linecap="round" stroke-linejoin="round"></path>
                                <path d="M40.2734805,12.0736313 C41.1413727,13.6822138 41.6523628,15.882863 41.8064508,18.675579 C42.0375828,22.8646531 42.3471023,26.9004294 44.9703045,28.3698923 C47.5935067,29.8393551 49.1641758,28.2846959 50.474804,27.8061789" id="Path-48" stroke="#051E44" stroke-width="0.639999962" stroke-linecap="round" stroke-linejoin="round"></path>
                                <path d="M49.6420797,28.4659653 C51.448493,26.9890372 52.9476558,26.9060446 54.139568,28.2169875 C55.9274364,30.1834019 53.1509289,37.338558 51.3363224,38.1235781 C50.1265847,38.6469249 49.5618371,38.3859687 49.6420797,37.3407093 L49.6420797,28.4659653 Z" id="Path-4" fill="#FFBE90"></path>
                                <path d="M26.1093756,30.7031533 C25.8663976,37.269624 25.7449086,40.738505 25.7449086,41.1097963 C25.7449086,41.4810875 26.6290174,42.030208 28.3972349,42.7571576" id="Path-6" stroke="#E07144" stroke-width="0.691199978" stroke-linecap="round" stroke-linejoin="round"></path>
                                <ellipse id="Mask" fill="#000000" cx="34.7538375" cy="30.7980952" rx="1.03493527" ry="1.29162562"></ellipse>
                                <ellipse id="Oval-Copy-2" fill="#000000" cx="20.4021961" cy="31.9462069" rx="1.03493527" ry="1.29162562"></ellipse>
                                <path d="M31.9898817,26.2928601 C33.6252812,25.6485033 35.12358,25.4337177 36.4847779,25.6485033 C37.8459759,25.8632889 38.9715742,26.3524567 39.861573,27.1160068" id="Path-7" stroke="#051E44" stroke-width="1.0367999" stroke-linecap="round" stroke-linejoin="round"></path>
                                <path d="M22.980815,26.7018793 C21.5474658,26.3967457 20.3796906,26.3461467 19.4774892,26.5500821 C18.5752878,26.7540175 17.7120028,27.3536622 16.8876343,28.349016" id="Path-8" stroke="#051E44" stroke-width="1.0367999" stroke-linecap="round" stroke-linejoin="round"></path>
                                <path d="M25.0172187,47.8075308 C26.0698936,48.450533 27.3050751,48.6648671 28.7227631,48.450533 C30.1404512,48.2361989 31.5237293,47.500718 32.8725975,46.2440903" id="Path-10" stroke="url(#linearGradient-29)" stroke-width="1.15199992" stroke-linecap="round" stroke-linejoin="round"></path>
                                <path d="M50.4223304,33.6247556 C50.9973046,33.0612912 51.1410481,32.5028111 50.853561,31.9493154 C50.4223304,31.1190718 50.5817241,29.7157511 51.7950653,29.2049781 C52.6039595,28.8644627 53.0740975,28.8644627 53.2054795,29.2049781" id="Path-23" stroke="#E07144" stroke-width="0.575999959" stroke-linecap="round" stroke-linejoin="round"></path>
                                <path d="M41.0668646,8.61083744 C39.3521333,5.98447459 36.1985247,4.55241785 31.6060388,4.31466721 C24.7173099,3.95804126 10.9971734,17.5491833 6.9694005,27.978255 C2.94162762,38.4073267 15.4648309,40.9794392 16.4700527,46.3500987 C17.4752746,51.7207582 6.28262743,66.8252423 13.5733328,75.7058907" id="Path-161" stroke="#1D4A8F" stroke-width="0.639999962" stroke-linecap="round" stroke-linejoin="round"></path>
                            </g>
                            <g id="Group-22" transform="translate(1.000000, 71.871062)">
                                <g id="Group-61" transform="translate(0.212670, 0.001832)">
                                    <mask id="mask-31" fill="white">
                                        <use xlink:href="#path-30"></use>
                                    </mask>
                                    <use id="Path-17" fill="#757AE9" xlink:href="#path-30"></use>
                                    <path d="M20.2487022,8.63043173 C13.5494553,31.0393817 10.1998319,47.7175993 10.1998319,58.6650844 C10.1998319,69.6125695 9.83341074,80.6848918 9.10056844,91.8820513 L24.7337882,79.6336187 L20.2487022,8.63043173 Z" id="Path-30" fill="url(#linearGradient-32)" opacity="0.400000006" mask="url(#mask-31)"></path>
                                </g>
                            </g>
                            <path d="M40.5573381,70.4193473 C35.9636314,74.166812 31.7428329,79.6356776 27.8949426,86.8259442 C22.1231072,97.6113441 16.5353023,106.856953 16.5353023,113.171795 C16.5353023,119.486637 17.015193,142.349852 17.015193,158.334816 C17.015193,168.991459 15.6714824,177.224161 12.9840613,183.032923 C19.4807921,183.132381 25.700521,182.306973 31.6432478,180.5567 C37.5859746,178.806426 40.5573381,142.093975 40.5573381,70.4193473 Z" id="Path-27" fill="url(#linearGradient-33)"></path>
                            <g id="Group-8" transform="translate(62.782742, 288.967033) scale(-1, 1) translate(-62.782742, -288.967033) translate(13.782742, 146.467033)">
                                <path d="M5.14912285,285 C13.9367108,285 16.7030798,281.288416 17.8991356,277.284523 C19.0951914,273.28063 18.4856297,263.426695 15.1660339,258.822484 C11.8464382,254.218273 8.54564594,258.303908 4.62862539,265.451525 C0.711604828,272.599141 -3.63846509,285 5.14912285,285 Z" id="Path-73" fill="#051E44" transform="translate(9.242815, 270.935931) scale(-1, 1) translate(-9.242815, -270.935931) "></path>
                                <g id="Group-64" transform="translate(57.948377, 256.068544)" fill="#051E44">
                                    <path d="M3.79697725,-1.13686838e-13 C1.60236372,3.48336235 0.505056955,6.22146607 0.505056955,8.21431117 C0.505056955,11.2035788 13.0665803,23.1882493 21.9238545,25.0076641 C30.7811287,26.8270788 37.2438594,23.1064364 36.295967,20.1745868 C35.6640388,18.2200205 31.523432,15.2919496 23.8741465,11.3903742 L3.79697725,-1.13686838e-13 Z" id="Path-26" fill-rule="nonzero"></path>
                                    <path d="M0.78575203,6.84874757 C-5.55111512e-17,9.7375127 0.46351665,13.7256274 0.505056955,16.417052 C0.532750491,18.211335 0.532750491,19.2485897 0.505056955,19.5288161 L2.03613174,20.3605251 L2.97840153,14.8126692 C7.42002395,17.980409 11.8178393,20.3870875 16.1718475,22.0327046 C20.5258557,23.6783217 24.0281984,24.0224507 26.6788754,23.0650918 C9.94062784,10.3283522 1.30958672,4.92290414 0.78575203,6.84874757 Z" id="Path-80"></path>
                                </g>
                                <g id="Path-28" transform="translate(53.244344, 66.031136)">
                                    <g id="Path-68" transform="translate(0.000000, 0.000000)">
                                        <mask id="mask-35" fill="white">
                                            <use xlink:href="#path-34"></use>
                                        </mask>
                                        <use id="Path-25" fill="#FFBE90" xlink:href="#path-34"></use>
                                        <path d="M37.0770261,76.6897103 C33.2617942,80.1715104 27.691592,82.7826253 20.3664195,84.523055 C13.0412471,86.2634848 6.59160676,86.2350427 1.0174986,84.4377289 L-2.33257919,36.0204509 L43.0560696,28.4320684 L37.0770261,76.6897103 Z" id="Path-69" fill="#ED9276" mask="url(#mask-35)"></path>
                                        <path d="M12.538398,76.4688645 C9.06195654,98.3100173 7.32373583,115.088606 7.32373583,126.804629 C7.32373583,138.520653 7.32373583,158.64434 7.32373583,187.175689 L-4.24434389,63.2862685 L12.538398,76.4688645 Z" id="Path-82" fill="url(#linearGradient-36)" mask="url(#mask-35)"></path>
                                    </g>
                                </g>
                                <g id="Path-81" transform="translate(3.319596, 44.164835)">
                                    <mask id="mask-38" fill="white">
                                        <use xlink:href="#path-37"></use>
                                    </mask>
                                    <use id="Path-72" fill="#FFBE90" xlink:href="#path-37"></use>
                                    <path d="M54.6287811,107.319811 C42.4645536,111.366649 30.9332529,112.539688 20.0348789,110.838928 C9.13650482,109.138168 12.806481,99.6588067 31.0448075,82.4008453 L62.4631461,90.2912088 L54.6287811,107.319811 Z" fill="#ED9276" mask="url(#mask-38)"></path>
                                </g>
                                <g id="Path-35" transform="translate(18.411765, 0.000000)">
                                    <mask id="mask-40" fill="white">
                                        <use xlink:href="#path-39"></use>
                                    </mask>
                                    <use id="Path-16" fill="#051E44" fill-rule="nonzero" xlink:href="#path-39"></use>
                                    <path d="M28.955812,16.9737678 C42.0450761,20.2896449 52.630342,21.3566659 60.7116098,20.174831 C72.8335115,18.4020787 74.3630639,15.7233472 75.6206869,14.1957482" stroke="#2F3C87" stroke-width="3.19999981" fill-rule="nonzero" mask="url(#mask-40)"></path>
                                    <path d="M56.503354,18.4414503 L56.8145363,22.8904762 C58.8984758,22.6607667 60.4607379,22.4788722 61.5013228,22.3447926 C62.5419077,22.2107129 63.7676819,22.0333683 65.1786454,21.8127586 L64.6254704,17.2879121 L56.503354,18.4414503 Z" id="Path-36" stroke="#504FC1" stroke-width="0.799999952" stroke-linecap="round" stroke-linejoin="round" fill-rule="nonzero" mask="url(#mask-40)"></path>
                                </g>
                                <path d="M3.31959576,258.822484 C2,263.251049 1.58097024,268.424055 2.24076812,271.099836 C2.900566,273.775617 6.31997685,276.03779 11.0325711,275.369845 C15.7451654,274.7019 17.0311046,273.77889 14.8125248,269.068544 C13.3334717,265.928313 12.9941765,263.3782 13.7946393,261.418205 C7.69100745,256.735348 4.19932627,255.870108 3.31959576,258.822484 Z" id="Path-74" fill="#FFBE90"></path>
                            </g>
                            <g id="Group" transform="translate(15.609551, 67.710989)">
                                <mask id="mask-42" fill="white">
                                    <use xlink:href="#path-41"></use>
                                </mask>
                                <use id="Path-11" fill="#FFBE90" xlink:href="#path-41"></use>
                                <path d="M46.1395791,9.45776923 C39.0780064,15.4648873 31.9099453,18.4684463 24.6353957,18.4684463 C17.3608462,18.4684463 14.9945777,14.7002096 17.5365903,7.16373626 L-15.7874193,31.0985681 L-0.377003782,96.6322166 L66.6833047,96.6322166 L76.7680162,14.0156455 L46.1395791,9.45776923 Z" id="Path-29-Copy" fill="#ED9276" opacity="0.5" mask="url(#mask-42)"></path>
                                <path d="M46.1395791,10.4577692 C39.0780064,16.4648873 31.9099453,19.4684463 24.6353957,19.4684463 C17.3608462,19.4684463 14.9945777,15.7002096 17.5365903,8.16373626 L-15.7874193,32.0985681 L-0.377003782,97.6322166 L66.6833047,97.6322166 L76.7680162,15.0156455 L46.1395791,10.4577692 Z" id="Path-29" fill="#19CEAF" mask="url(#mask-42)"></path>
                                <path d="M25.5204698,0.511832434 C21.2580721,6.21523079 15.68102,16.2626293 8.10691688,28.7758201 C3.05751482,37.1179474 0.438785007,44.7243788 0.250727444,51.5951143 L4.84546299,3.28901099 C21.4703993,-2.36470695 28.3620682,-3.29043314 25.5204698,0.511832434 Z" id="Path-14" fill="#42308C" opacity="0.200000003" mask="url(#mask-42)"></path>
                                <path d="M44.3202497,11.096739 C37.9368373,29.4703416 34.0076509,51.8677656 32.5326904,78.289011 C31.0577299,104.710256 32.6045634,121.289347 37.1731908,128.026284 L63.8202497,96.6322166 L44.3202497,11.096739 Z" id="Path-61" fill="#42308C" opacity="0.200000003" mask="url(#mask-42)"></path>
                            </g>
                            <path d="M41.1300208,69.8296245 C36.1545256,73.9702377 31.7428329,79.6356776 27.8949426,86.8259442 C22.1231072,97.6113441 16.5353023,106.856953 16.5353023,113.171795 C16.5353023,119.486637 17.015193,142.349852 17.015193,158.334816 C17.015193,168.991459 15.6714824,177.224161 12.9840613,183.032923 C15.5538572,172.866706 16.4706358,161.472922 15.7343973,148.851571 C14.6300396,129.919546 14.9334924,113.678849 15.7343973,102.58015 C16.5353023,91.4814507 18.8705364,79.5080231 22.8782489,76.7441254 C25.5500573,74.901527 31.6339812,72.5966934 41.1300208,69.8296245 Z" id="Path-27-Copy" fill="#757AE9"></path>
                            <g id="Path-33" transform="translate(49.904977, 69.631868)">
                                <mask id="mask-44" fill="white">
                                    <use xlink:href="#path-43"></use>
                                </mask>
                                <use id="Mask" fill="#757AE9" transform="translate(19.422762, 57.793051) scale(-1, 1) translate(-19.422762, -57.793051) " xlink:href="#path-43"></use>
                                <path d="M30.6763088,14.4065934 C20.4088001,40.5451194 18.1660627,60.2167503 23.9480966,73.4214859 C29.7301306,86.6262216 40.1657326,78.562482 55.2549026,49.2302671 L30.6763088,14.4065934 Z" fill="url(#linearGradient-45)" opacity="0.300000012" mask="url(#mask-44)"></path>
                            </g>
                            <g id="Group-63" transform="translate(0.429801, 116.000000)">
                                <rect id="Rectangle-Copy-74" fill="#19CEAF" x="0" y="1" width="130" height="86" rx="4"></rect>
                                <rect id="Rectangle" fill="url(#linearGradient-46)" fill-rule="nonzero" x="3" y="0" width="130" height="86" rx="4"></rect>
                                <g id="Rectangle-Copy-65" transform="translate(21.000000, 16.000000)">
                                    <mask id="mask-48" fill="white">
                                        <use xlink:href="#path-47"></use>
                                    </mask>
                                    <use id="Rectangle-Copy-62" fill="#D1DDFF" fill-rule="nonzero" xlink:href="#path-47"></use>
                                    <path d="M23.2682787,6.18181818 L15.3184378,6.18181818 C14.9838761,6.18181818 14.6962718,6.29645016 14.4992604,6.50119078 C14.3038611,6.70425603 14.2027956,6.99132224 14.2196722,7.31873754 L14.2950653,8.30956364 C14.3918087,8.72387985 14.6469162,9.09620046 14.9782905,9.36821743 C15.3131453,9.64309147 15.7288413,9.81818182 16.1494228,9.81818182 L24.0992637,9.81818182 C24.4338254,9.81818182 24.7214297,9.70354984 24.9184411,9.49880922 C25.1138403,9.29574397 25.2149059,9.00867776 25.1980292,8.68126246 L25.1226362,7.69043636 C25.0258928,7.27612015 24.7707852,6.90379954 24.4394109,6.63178257 C24.1045561,6.35690853 23.6888602,6.18181818 23.2682787,6.18181818 Z" id="Rectangle" stroke="#FEFEFF" stroke-width="0.727272727" fill-rule="nonzero" mask="url(#mask-48)"></path>
                                    <path d="M5.08646051,6.18181818 L-2.86338038,6.18181818 C-3.19794207,6.18181818 -3.48554642,6.29645016 -3.6825578,6.50119078 C-3.87795705,6.70425603 -3.97902261,6.99132224 -3.96214593,7.31873754 L-3.88675291,8.30956364 C-3.79000949,8.72387985 -3.53490195,9.09620046 -3.20352765,9.36821743 C-2.86867284,9.64309147 -2.4529769,9.81818182 -2.03239539,9.81818182 L5.9174455,9.81818182 C6.25200719,9.81818182 6.53961154,9.70354984 6.73662292,9.49880922 C6.93202217,9.29574397 7.03308773,9.00867776 7.01621105,8.68126246 L6.94081803,7.69043636 C6.84407461,7.27612015 6.58896707,6.90379954 6.25759277,6.63178257 C5.92273796,6.35690853 5.50704201,6.18181818 5.08646051,6.18181818 Z" id="Rectangle-Copy-66" stroke="#FEFEFF" stroke-width="0.727272727" fill-rule="nonzero" mask="url(#mask-48)"></path>
                                    <path d="M5.74750837,2.54545455 L-2.20233253,2.54545455 C-2.53689421,2.54545455 -2.82449857,2.66008652 -3.02150994,2.86482714 C-3.21690919,3.06789239 -3.31797475,3.3549586 -3.30109807,3.6823739 L-3.22570506,4.6732 C-3.12896163,5.08751621 -2.87385409,5.45983682 -2.54247979,5.7318538 C-2.20762499,6.00672783 -1.79192904,6.18181818 -1.37134753,6.18181818 L6.57849336,6.18181818 C6.91305505,6.18181818 7.2006594,6.06718621 7.39767077,5.86244559 C7.59307003,5.65938034 7.69413559,5.37231412 7.67725891,5.04489883 L7.60186589,4.05407272 C7.50512247,3.63975651 7.25001492,3.26743591 6.91864062,2.99541893 C6.58378582,2.7205449 6.16808987,2.54545455 5.74750837,2.54545455 Z" id="Rectangle-Copy-67" stroke="#FEFEFF" stroke-width="0.727272727" fill-rule="nonzero" mask="url(#mask-48)"></path>
                                    <path d="M6.69343701,9.45454545 C5.85410487,11.8797314 7.08127587,13.215603 10.37495,13.4621602 C13.6686241,13.7087175 15.0187459,12.132251 14.4253155,8.73276096" id="Path-15" stroke="#FEFEFF" stroke-width="0.727272727" fill-rule="nonzero" mask="url(#mask-48)"></path>
                                    <line x1="13.8254896" y1="12.7006146" x2="23.2776131" y2="12.7539309" id="Path-19" stroke="#FEFEFF" stroke-width="0.727272727" stroke-linecap="round" stroke-linejoin="round" fill-rule="nonzero" mask="url(#mask-48)"></line>
                                    <line x1="-2.17451041" y1="12.7006146" x2="7.27761307" y2="12.7539309" id="Path-19-Copy" stroke="#FEFEFF" stroke-width="0.727272727" stroke-linecap="round" stroke-linejoin="round" fill-rule="nonzero" mask="url(#mask-48)"></line>
                                </g>
                                <ellipse id="Oval-Copy-32" fill="#757AE9" fill-rule="nonzero" opacity="0.340000004" cx="109" cy="66" rx="6" ry="8"></ellipse>
                                <ellipse id="Oval" fill="#19CEAF" fill-rule="nonzero" opacity="0.340000004" cx="102" cy="66" rx="6" ry="8"></ellipse>
                                <rect id="Rectangle" fill="#D1DDFF" fill-rule="nonzero" opacity="0.5" x="21" y="42" width="94" height="8" rx="2"></rect>
                                <rect id="Rectangle-Copy-80" fill="#D1DDFF" fill-rule="nonzero" opacity="0.5" x="21" y="62" width="44" height="8" rx="2"></rect>
                            </g>
                            <g id="Group-20" transform="translate(85.843584, 143.729054) rotate(-350.000000) translate(-85.843584, -143.729054) translate(67.343584, 77.229054)">
                                <g id="Path-85" transform="translate(20.557429, 108.414234)">
                                    <mask id="mask-50" fill="white">
                                        <use xlink:href="#path-49"></use>
                                    </mask>
                                    <use id="Path-83" fill="#FFBE90" xlink:href="#path-49"></use>
                                    <path d="M2.62497025,22.0800446 C3.01921224,20.9275922 3.3989541,19.1515836 3.76419583,16.752019 C3.76210737,21.0211705 3.9508556,23.6226655 4.33044053,24.5565039 C4.89981791,25.9572616 2.03360725,23.8087234 2.62497025,22.0800446 Z" id="Path-86" fill="#ED9276" mask="url(#mask-50)"></path>
                                </g>
                                <path d="M9.06752891,0.713941824 C18.3250839,5.91942687 35.0064207,54.6332199 35.937806,59.9153683 C37.4910806,68.724426 37.0980472,87.1930446 34.7587059,115.321224 L23.2061909,115.831028 C21.5274432,89.5094052 20.2278049,72.7321467 19.3072761,65.4992526 C13.4948431,51.4108447 3.60331222,29.8703977 2.15360126,26.6544281 C0.899778597,23.8730078 0.0889594409,16.5866632 1.52572341,10.7107297 C3.10717609,4.24306295 6.64112792,-0.650413459 9.06752891,0.713941824 Z" id="Path-12" fill="#757AE9"></path>
                            </g>
                        </g>
                        <g id="Group-10" transform="translate(70.328054, 60.427656) scale(-1, 1) translate(-70.328054, -60.427656) translate(55.511312, 41.619048)">
                            <path d="M0.0399259869,34.0868431 C2.23767235,34.7789996 5.17064813,35.4497366 8.83885335,36.0990541 C14.3411612,37.0730304 19.1040929,36.0990541 23.0253107,32.589404 C26.9465285,29.0797539 28.132813,20.1721406 28.5034881,16.3893338 C28.7506048,13.8674627 23.9448986,11.6222561 14.0863695,9.65371404 L0.0399259869,34.0868431 Z" id="Path-31" fill="#051E44" fill-rule="nonzero"></path>
                            <path d="M25.9623702,0.337743717 C27.7116473,7.71222695 31.543099,26.1140502 27.7116473,33.2106354 C25.1573462,37.9416922 17.5284324,38.4527933 4.82490582,34.7439387" id="Path-32" stroke="#051E44" stroke-width="0.639999962" stroke-linecap="round" stroke-linejoin="round"></path>
                        </g>
                    </g>
                    <g id="Group-40" transform="translate(73.000000, 40.000000)">
                        <g id="Rectangle" fill-rule="nonzero">
                            <use fill="black" fill-opacity="1" filter="url(#filter-52)" xlink:href="#path-51"></use>
                            <use fill="#FFFFFF" xlink:href="#path-51"></use>
                        </g>
                        <rect id="Rectangle" fill="#D1DDFF" fill-rule="nonzero" opacity="0.5" x="24" y="20" width="80" height="8"></rect>
                        <g id="Group-39" transform="translate(24.000000, 44.000000)" fill-rule="nonzero">
                            <rect id="Rectangle-Copy-82" fill="#19CEAF" x="0" y="0" width="6" height="6" rx="1"></rect>
                            <rect id="Rectangle-Copy-83" fill="#E8EEFF" x="10" y="1" width="26" height="4" rx="1"></rect>
                        </g>
                        <g id="Group-39-Copy" transform="translate(76.000000, 44.000000)" fill-rule="nonzero">
                            <rect id="Rectangle-Copy-82" fill="#757AE9" x="0" y="0" width="6" height="6" rx="1"></rect>
                            <rect id="Rectangle-Copy-83" fill="#E8EEFF" x="10" y="1" width="36" height="4" rx="1"></rect>
                        </g>
                        <g id="Group-38" transform="translate(24.000000, 60.000000)">
                            <g id="Group-33" transform="translate(0.000000, 20.000000)">
                                <rect id="Rectangle" fill="#19CEAF" x="0" y="0" width="4" height="27"></rect>
                                <rect id="Rectangle-Copy-81" fill="#757AE9" x="0" y="31" width="4" height="17"></rect>
                            </g>
                            <g id="Group-33-Copy" transform="translate(21.000000, 30.000000)">
                                <rect id="Rectangle" fill="#19CEAF" x="0" y="0" width="4" height="17"></rect>
                                <rect id="Rectangle-Copy-81" fill="#757AE9" x="0" y="21" width="4" height="23"></rect>
                            </g>
                            <g id="Group-33-Copy-2" transform="translate(42.000000, 34.000000)">
                                <rect id="Rectangle" fill="#19CEAF" x="0" y="0" width="4" height="13"></rect>
                                <rect id="Rectangle-Copy-81" fill="#757AE9" x="0" y="17" width="4" height="11"></rect>
                            </g>
                            <g id="Group-33-Copy-3" transform="translate(63.000000, 30.000000)">
                                <rect id="Rectangle" fill="#19CEAF" x="0" y="0" width="4" height="17"></rect>
                                <rect id="Rectangle-Copy-81" fill="#757AE9" x="0" y="21" width="4" height="17"></rect>
                            </g>
                            <g id="Group-33-Copy-4" transform="translate(84.000000, 20.000000)">
                                <rect id="Rectangle" fill="#19CEAF" x="0" y="0" width="4" height="27"></rect>
                                <rect id="Rectangle-Copy-81" fill="#757AE9" x="0" y="31" width="4" height="11"></rect>
                            </g>
                            <g id="Group-33-Copy-5" transform="translate(105.000000, 10.000000)">
                                <rect id="Rectangle" fill="#19CEAF" x="0" y="0" width="4" height="37"></rect>
                                <rect id="Rectangle-Copy-81" fill="#757AE9" x="0" y="41" width="4" height="17"></rect>
                            </g>
                            <g id="Group-33-Copy-6" transform="translate(126.000000, 20.000000)">
                                <rect id="Rectangle" fill="#19CEAF" x="0" y="0" width="4" height="27"></rect>
                                <rect id="Rectangle-Copy-81" fill="#757AE9" x="0" y="31" width="4" height="10"></rect>
                            </g>
                            <g id="Group-33-Copy-7" transform="translate(147.000000, 20.000000)">
                                <rect id="Rectangle" fill="#19CEAF" x="0" y="0" width="4" height="27"></rect>
                                <rect id="Rectangle-Copy-81" fill="#757AE9" x="0" y="31" width="4" height="8"></rect>
                            </g>
                            <g id="Group-33-Copy-8" transform="translate(168.000000, 0.000000)">
                                <rect id="Rectangle" fill="#19CEAF" x="0" y="0" width="4" height="47"></rect>
                                <rect id="Rectangle-Copy-81" fill="#757AE9" x="0" y="51" width="4" height="23"></rect>
                            </g>
                            <g id="Group-33-Copy-9" transform="translate(189.000000, 10.000000)">
                                <rect id="Rectangle" fill="#19CEAF" x="0" y="0" width="4" height="37"></rect>
                                <rect id="Rectangle-Copy-81" fill="#757AE9" x="0" y="41" width="4" height="17"></rect>
                            </g>
                        </g>
                    </g>
                    <g id="Group-41" transform="translate(73.000000, 220.000000)" fill-rule="nonzero">
                        <g id="Rectangle">
                            <use fill="black" fill-opacity="1" filter="url(#filter-54)" xlink:href="#path-53"></use>
                            <use fill="#FFFFFF" xlink:href="#path-53"></use>
                        </g>
                        <rect id="Rectangle" fill="#D1DDFF" opacity="0.5" x="20" y="12" width="80" height="8"></rect>
                        <rect id="Rectangle-Copy-85" fill="#D1DDFF" opacity="0.5" x="180" y="12" width="40" height="4"></rect>
                        <rect id="Rectangle-Copy-86" fill="#19CEAF" opacity="0.5" x="190" y="20" width="30" height="8"></rect>
                        <rect id="Rectangle-Copy-84" fill="#D1DDFF" opacity="0.5" x="20" y="24" width="50" height="4"></rect>
                    </g>
                </g>
            </g>
        </g>
    </g>
</svg>